<svg width="76" height="44" viewBox="0 0 76 44" fill="none" xmlns="http://www.w3.org/2000/svg">
<rect x="0.5" y="0.5" width="75" height="39" rx="19.5" fill="#101631" stroke="#303E65"/>
<g filter="url(#filter0_d_325:1425)">
<circle cx="20" cy="20" r="16" fill="#3B4BD8"/>
</g>
<path d="M28 22.7125L28.9324 23.0739C29.0756 22.7046 28.9872 22.2855 28.7071 22.0054C28.427 21.7253 28.008 21.6369 27.6386 21.7801L28 22.7125ZM17.2873 12L18.2197 12.3614C18.3629 11.9921 18.2745 11.573 17.9944 11.2929C17.7143 11.0128 17.2952 10.9244 16.9258 11.0676L17.2873 12ZM27.6386 21.7801C26.8243 22.0958 25.9381 22.2694 25.0089 22.2694V24.2694C26.1892 24.2694 27.3203 24.0485 28.3615 23.6449L27.6386 21.7801ZM25.0089 22.2694C20.9891 22.2694 17.7305 19.0107 17.7305 14.991H15.7305C15.7305 20.1153 19.8846 24.2694 25.0089 24.2694V22.2694ZM17.7305 14.991C17.7305 14.0619 17.9041 13.1757 18.2197 12.3614L16.3549 11.6386C15.9513 12.6797 15.7305 13.8107 15.7305 14.991H17.7305ZM13 19.7215C13 16.6307 14.927 13.9875 17.6487 12.9324L16.9258 11.0676C13.4601 12.4111 11 15.7778 11 19.7215H13ZM20.2784 27C16.2587 27 13 23.7413 13 19.7215H11C11 24.8459 15.1541 29 20.2784 29V27ZM27.0676 22.3511C26.0126 25.0729 23.3693 27 20.2784 27V29C24.2223 29 27.589 26.5398 28.9324 23.0739L27.0676 22.3511Z" fill="white"/>
<defs>
<filter id="filter0_d_325:1425" x="0" y="4" width="40" height="40" filterUnits="userSpaceOnUse" color-interpolation-filters="sRGB">
<feFlood flood-opacity="0" result="BackgroundImageFix"/>
<feColorMatrix in="SourceAlpha" type="matrix" values="0 0 0 0 0 0 0 0 0 0 0 0 0 0 0 0 0 0 127 0" result="hardAlpha"/>
<feOffset dy="4"/>
<feGaussianBlur stdDeviation="2"/>
<feComposite in2="hardAlpha" operator="out"/>
<feColorMatrix type="matrix" values="0 0 0 0 0 0 0 0 0 0 0 0 0 0 0 0 0 0 0.25 0"/>
<feBlend mode="normal" in2="BackgroundImageFix" result="effect1_dropShadow_325:1425"/>
<feBlend mode="normal" in="SourceGraphic" in2="effect1_dropShadow_325:1425" result="shape"/>
</filter>
</defs>
</svg>
