<?xml version="1.0" encoding="UTF-8"?>
<svg xmlns="http://www.w3.org/2000/svg" xmlns:xlink="http://www.w3.org/1999/xlink" width="24px" height="24px" viewBox="0 0 24 24" version="1.1">
<defs>
<filter id="alpha" filterUnits="objectBoundingBox" x="0%" y="0%" width="100%" height="100%">
  <feColorMatrix type="matrix" in="SourceGraphic" values="0 0 0 0 1 0 0 0 0 1 0 0 0 0 1 0 0 0 1 0"/>
</filter>
<mask id="mask0">
  <g filter="url(#alpha)">
<rect x="0" y="0" width="24" height="24" style="fill:rgb(0%,0%,0%);fill-opacity:0.2;stroke:none;"/>
  </g>
</mask>
<clipPath id="clip1">
  <rect x="0" y="0" width="24" height="24"/>
</clipPath>
<g id="surface5" clip-path="url(#clip1)">
<path style=" stroke:none;fill-rule:nonzero;fill:rgb(100%,100%,100%);fill-opacity:1;" d="M 12 8.667969 C 8.265625 8.667969 5.109375 10.488281 4 11.332031 L 5.601562 13.867188 C 6.445312 13.109375 8.691406 11.601562 12 11.601562 C 15.304688 11.601562 17.378906 13.109375 18.132812 13.867188 L 19.734375 11.332031 C 18.710938 10.488281 15.734375 8.667969 12 8.667969 Z M 12 8.667969 "/>
</g>
</defs>
<g id="surface1">
<path style="fill-rule:nonzero;fill:rgb(96.862745%,97.647059%,98.431373%);fill-opacity:1;stroke-width:1;stroke-linecap:butt;stroke-linejoin:miter;stroke:rgb(78.039216%,83.921569%,89.411765%);stroke-opacity:1;stroke-miterlimit:4;" d="M 31.5 16 C 31.5 24.5625 24.5625 31.5 16 31.5 C 7.4375 31.5 0.5 24.5625 0.5 16 C 0.5 7.4375 7.4375 0.5 16 0.5 C 24.5625 0.5 31.5 7.4375 31.5 16 Z M 31.5 16 " transform="matrix(0.75,0,0,0.75,0,0)"/>
<path style=" stroke:none;fill-rule:evenodd;fill:rgb(100%,40.784314%,32.941176%);fill-opacity:1;" d="M 12 4.976562 C 7.898438 4.976562 3.390625 6.863281 3.121094 9.019531 C 2.949219 10.378906 5.414062 14.019531 7.957031 16.527344 C 7.050781 17.367188 6.65625 18.394531 6.613281 19.074219 L 17.386719 19.074219 C 17.34375 18.394531 16.949219 17.367188 16.042969 16.527344 C 18.585938 14.019531 21.050781 10.378906 20.878906 9.019531 C 20.609375 6.863281 16.101562 4.976562 12 4.976562 Z M 12 4.976562 "/>
<use xlink:href="#surface5" mask="url(#mask0)"/>
<path style=" stroke:none;fill-rule:evenodd;fill:rgb(11.372549%,14.901961%,32.941176%);fill-opacity:1;" d="M 4.34375 7.804688 C 3.863281 8.246094 3.609375 8.679688 3.558594 9.074219 C 3.535156 9.289062 3.613281 9.675781 3.855469 10.234375 C 4.085938 10.777344 4.445312 11.414062 4.890625 12.097656 C 5.789062 13.464844 7.019531 14.980469 8.269531 16.210938 C 8.355469 16.296875 8.40625 16.414062 8.402344 16.535156 C 8.402344 16.65625 8.347656 16.773438 8.257812 16.855469 C 7.636719 17.429688 7.289062 18.097656 7.140625 18.628906 L 16.859375 18.628906 C 16.710938 18.097656 16.363281 17.429688 15.738281 16.855469 C 15.652344 16.773438 15.597656 16.65625 15.597656 16.535156 C 15.59375 16.414062 15.644531 16.296875 15.730469 16.210938 C 16.980469 14.980469 18.210938 13.464844 19.109375 12.097656 C 19.554688 11.414062 19.914062 10.777344 20.144531 10.234375 C 20.386719 9.675781 20.464844 9.289062 20.441406 9.074219 C 20.390625 8.679688 20.136719 8.246094 19.65625 7.804688 C 19.175781 7.367188 18.503906 6.953125 17.695312 6.597656 C 16.082031 5.882812 13.988281 5.421875 12 5.421875 C 10.007812 5.421875 7.917969 5.882812 6.300781 6.597656 C 5.496094 6.953125 4.824219 7.367188 4.34375 7.804688 Z M 5.941406 5.785156 C 7.675781 5.015625 9.886719 4.535156 12 4.535156 C 14.113281 4.535156 16.324219 5.015625 18.058594 5.785156 C 18.921875 6.167969 19.683594 6.628906 20.253906 7.148438 C 20.824219 7.667969 21.234375 8.28125 21.320312 8.960938 C 21.378906 9.429688 21.214844 10.003906 20.960938 10.589844 C 20.703125 11.191406 20.316406 11.875 19.851562 12.585938 C 18.996094 13.890625 17.851562 15.316406 16.667969 16.527344 C 17.429688 17.375 17.785156 18.339844 17.832031 19.046875 C 17.839844 19.167969 17.796875 19.289062 17.710938 19.378906 C 17.628906 19.46875 17.511719 19.519531 17.386719 19.519531 L 6.613281 19.519531 C 6.488281 19.519531 6.371094 19.46875 6.289062 19.378906 C 6.203125 19.289062 6.160156 19.167969 6.167969 19.046875 C 6.214844 18.339844 6.570312 17.375 7.332031 16.527344 C 6.148438 15.316406 5.003906 13.890625 4.148438 12.585938 C 3.683594 11.875 3.296875 11.191406 3.039062 10.589844 C 2.785156 10.003906 2.621094 9.429688 2.679688 8.960938 C 2.765625 8.28125 3.175781 7.667969 3.746094 7.148438 C 4.316406 6.628906 5.078125 6.167969 5.941406 5.785156 Z M 5.941406 5.785156 "/>
<path style=" stroke:none;fill-rule:evenodd;fill:rgb(11.372549%,14.901961%,32.941176%);fill-opacity:1;" d="M 10.308594 4.738281 C 10.175781 4.640625 9.992188 4.671875 9.894531 4.804688 C 9.773438 4.972656 9.703125 5.234375 9.65625 5.519531 C 9.609375 5.820312 9.582031 6.199219 9.570312 6.640625 C 9.550781 7.523438 9.609375 8.679688 9.75 10.003906 C 10.003906 12.378906 10.53125 15.3125 11.410156 18.195312 C 9.71875 16.621094 8.484375 14.320312 7.699219 12.128906 C 7.246094 10.875 6.949219 9.667969 6.792969 8.671875 C 6.636719 7.660156 6.632812 6.90625 6.746094 6.535156 C 6.792969 6.378906 6.703125 6.210938 6.542969 6.167969 C 6.386719 6.121094 6.222656 6.210938 6.175781 6.367188 C 6.027344 6.875 6.046875 7.742188 6.207031 8.761719 C 6.367188 9.800781 6.679688 11.042969 7.140625 12.328125 C 8.058594 14.890625 9.601562 17.667969 11.824219 19.3125 C 11.925781 19.390625 12.070312 19.390625 12.175781 19.316406 C 12.277344 19.238281 12.320312 19.105469 12.28125 18.980469 C 11.234375 15.839844 10.617188 12.546875 10.339844 9.9375 C 10.199219 8.632812 10.144531 7.503906 10.164062 6.65625 C 10.171875 6.230469 10.199219 5.878906 10.242188 5.613281 C 10.285156 5.332031 10.339844 5.195312 10.375 5.152344 C 10.46875 5.019531 10.441406 4.835938 10.308594 4.738281 Z M 10.308594 4.738281 "/>
<path style=" stroke:none;fill-rule:evenodd;fill:rgb(11.372549%,14.901961%,32.941176%);fill-opacity:1;" d="M 13.691406 4.738281 C 13.824219 4.640625 14.007812 4.671875 14.105469 4.804688 C 14.226562 4.972656 14.296875 5.234375 14.34375 5.519531 C 14.390625 5.820312 14.417969 6.199219 14.429688 6.640625 C 14.449219 7.523438 14.390625 8.679688 14.25 10.003906 C 13.996094 12.378906 13.464844 15.3125 12.589844 18.195312 C 14.28125 16.621094 15.515625 14.320312 16.300781 12.128906 C 16.753906 10.875 17.050781 9.667969 17.207031 8.671875 C 17.363281 7.660156 17.363281 6.90625 17.253906 6.535156 C 17.207031 6.378906 17.296875 6.210938 17.453125 6.167969 C 17.613281 6.121094 17.777344 6.210938 17.824219 6.367188 C 17.972656 6.875 17.949219 7.742188 17.792969 8.761719 C 17.632812 9.800781 17.320312 11.042969 16.859375 12.328125 C 15.941406 14.890625 14.398438 17.667969 12.175781 19.3125 C 12.070312 19.390625 11.929688 19.390625 11.824219 19.316406 C 11.722656 19.238281 11.679688 19.105469 11.71875 18.980469 C 12.765625 15.839844 13.382812 12.546875 13.660156 9.9375 C 13.800781 8.632812 13.855469 7.503906 13.835938 6.65625 C 13.828125 6.230469 13.800781 5.878906 13.757812 5.613281 C 13.710938 5.332031 13.65625 5.195312 13.625 5.152344 C 13.53125 5.019531 13.558594 4.835938 13.691406 4.738281 Z M 13.691406 4.738281 "/>
</g>
</svg>
