<svg width="24" height="24" viewBox="0 0 24 24" fill="none" xmlns="http://www.w3.org/2000/svg">
<path fill-rule="evenodd" clip-rule="evenodd" d="M18 23.25H6C4.34315 23.25 3 21.9069 3 20.25V3.75C3 2.09315 4.34315 0.75 6 0.75H15.4393C15.6383 0.75 15.829 0.829018 15.9697 0.96967L20.7803 5.78033C20.921 5.92098 21 6.11175 21 6.31066V20.25C21 21.9069 19.6569 23.25 18 23.25ZM19.5 6.75L15.75 6.75C15.3358 6.75 15 6.41421 15 6V2.25L19.5 6.75ZM6.75 11.25C6.75 10.8358 7.08579 10.5 7.5 10.5H16.5C16.9142 10.5 17.25 10.8358 17.25 11.25C17.25 11.6642 16.9142 12 16.5 12H7.5C7.08579 12 6.75 11.6642 6.75 11.25ZM7.5 15C7.08579 15 6.75 15.3358 6.75 15.75C6.75 16.1642 7.08579 16.5 7.5 16.5H16.5C16.9142 16.5 17.25 16.1642 17.25 15.75C17.25 15.3358 16.9142 15 16.5 15H7.5Z" fill="#5E6E99"/>
</svg>
