<svg width="24" height="24" viewBox="0 0 24 24" fill="none" xmlns="http://www.w3.org/2000/svg">
<path d="M13.5376 12.0653C13.5376 15.8292 10.5071 18.8805 6.76893 18.8805C3.03077 18.8805 0 15.8292 0 12.0653C0 8.30145 3.03054 5.25 6.76893 5.25C10.5073 5.25 13.5376 8.30145 13.5376 12.0653Z" fill="#5E6E99"/>
<path d="M20.9627 12.0652C20.9627 15.608 19.4474 18.4813 17.5782 18.4813C15.709 18.4813 14.1937 15.608 14.1937 12.0652C14.1937 8.52227 15.7088 5.64905 17.578 5.64905C19.4472 5.64905 20.9624 8.52135 20.9624 12.0652" fill="#5E6E99"/>
<path d="M24 12.0651C24 15.2387 23.4671 17.8129 22.8097 17.8129C22.1522 17.8129 21.6196 15.2393 21.6196 12.0651C21.6196 8.89079 22.1524 6.3172 22.8097 6.3172C23.4669 6.3172 24 8.89057 24 12.0651Z" fill="#5E6E99"/>
</svg>
