<svg width="24" height="24" viewBox="0 0 24 24" fill="none" xmlns="http://www.w3.org/2000/svg">
<g clip-path="url(#clip0_183:1329)">
<path fill-rule="evenodd" clip-rule="evenodd" d="M12 0.545484C9.14831 0.542586 6.38884 1.5553 4.21604 3.40215C2.04325 5.24901 0.599155 7.80927 0.142572 10.6241C-0.314012 13.439 0.246757 16.3244 1.72437 18.7634C3.20199 21.2024 5.49987 23.0354 8.20623 23.9341C8.80291 24.0446 9.02391 23.6689 9.02391 23.3521C9.02391 23.0353 9.02391 22.3134 9.02391 21.3116C5.68689 22.0482 4.9797 19.7057 4.9797 19.7057C4.75735 18.9797 4.28496 18.3559 3.64637 17.9451C2.5635 17.2085 3.73477 17.2085 3.73477 17.2085C4.11436 17.2621 4.47677 17.4014 4.79456 17.6158C5.11236 17.8302 5.3772 18.1141 5.56902 18.446C5.73202 18.7416 5.95176 19.002 6.21565 19.2124C6.47954 19.4228 6.78239 19.5791 7.10681 19.6721C7.43122 19.7652 7.77083 19.7933 8.10613 19.7548C8.44144 19.7164 8.76584 19.612 9.06073 19.4479C9.10696 18.8419 9.36822 18.2723 9.79738 17.842C7.13071 17.54 4.33145 16.5087 4.33145 11.912C4.31314 10.7208 4.7536 9.56819 5.56165 8.69281C5.20104 7.65721 5.24311 6.52387 5.67952 5.51786C5.67952 5.51786 6.68872 5.19373 8.9797 6.74806C10.947 6.20792 13.0235 6.20792 14.9908 6.74806C17.2817 5.19373 18.2836 5.51786 18.2836 5.51786C18.7245 6.52244 18.7693 7.65662 18.4088 8.69281C19.2168 9.56819 19.6573 10.7208 19.639 11.912C19.639 16.5234 16.8324 17.5326 14.1583 17.8051C14.4451 18.0934 14.6665 18.4399 14.8076 18.8212C14.9486 19.2025 15.0061 19.6096 14.976 20.0151C14.976 21.621 14.976 22.9175 14.976 23.3079C14.976 23.6983 15.1897 24.0004 15.8011 23.8899C18.4989 22.9828 20.7868 21.1468 22.2566 18.7094C23.7265 16.2721 24.2827 13.3919 23.8262 10.5825C23.3696 7.77307 21.9299 5.21721 19.7638 3.37077C17.5977 1.52432 14.8462 0.507365 12 0.501282V0.545484Z" fill="#5E6E99"/>
</g>
<defs>
<clipPath id="clip0_183:1329">
<rect width="24" height="24" fill="white"/>
</clipPath>
</defs>
</svg>
