<svg width="24" height="24" viewBox="0 0 24 24" fill="none" xmlns="http://www.w3.org/2000/svg">
<path d="M19.8734 4.76726C18.4253 4.10282 16.8724 3.61328 15.2488 3.3329C15.2192 3.32749 15.1897 3.34101 15.1745 3.36806C14.9748 3.72326 14.7536 4.18666 14.5986 4.55088C12.8523 4.28944 11.115 4.28944 9.4045 4.55088C9.24955 4.17856 9.02031 3.72326 8.8197 3.36806C8.80447 3.34192 8.77493 3.32839 8.74536 3.3329C7.12264 3.61238 5.56978 4.10192 4.12079 4.76726C4.10824 4.77267 4.09749 4.7817 4.09035 4.79341C1.1449 9.19386 0.338014 13.4861 0.733844 17.7252C0.735635 17.746 0.747277 17.7658 0.763397 17.7784C2.70672 19.2055 4.58917 20.0719 6.43666 20.6462C6.46623 20.6552 6.49755 20.6444 6.51637 20.6201C6.95339 20.0233 7.34296 19.394 7.67698 18.7322C7.69669 18.6935 7.67787 18.6475 7.63759 18.6322C7.01967 18.3978 6.43128 18.112 5.8653 17.7874C5.82053 17.7613 5.81695 17.6972 5.85813 17.6666C5.97723 17.5773 6.09637 17.4845 6.2101 17.3907C6.23067 17.3736 6.25935 17.37 6.28354 17.3808C10.0018 19.0784 14.0273 19.0784 17.7017 17.3808C17.7259 17.3691 17.7545 17.3727 17.776 17.3898C17.8898 17.4836 18.0089 17.5773 18.1289 17.6666C18.1701 17.6972 18.1674 17.7613 18.1226 17.7874C17.5566 18.1183 16.9682 18.3978 16.3494 18.6313C16.3091 18.6466 16.2912 18.6935 16.3109 18.7322C16.6521 19.3931 17.0417 20.0223 17.4706 20.6192C17.4886 20.6444 17.5208 20.6552 17.5504 20.6462C19.4068 20.0719 21.2892 19.2055 23.2326 17.7784C23.2496 17.7658 23.2603 17.7468 23.2621 17.7261C23.7359 12.8253 22.4687 8.56819 19.9029 4.7943C19.8967 4.7817 19.8859 4.77267 19.8734 4.76726ZM8.23224 15.1441C7.11279 15.1441 6.19039 14.1163 6.19039 12.8541C6.19039 11.592 7.0949 10.5642 8.23224 10.5642C9.37851 10.5642 10.292 11.601 10.2741 12.8541C10.2741 14.1163 9.36955 15.1441 8.23224 15.1441ZM15.7817 15.1441C14.6622 15.1441 13.7398 14.1163 13.7398 12.8541C13.7398 11.592 14.6443 10.5642 15.7817 10.5642C16.928 10.5642 17.8414 11.601 17.8235 12.8541C17.8235 14.1163 16.928 15.1441 15.7817 15.1441Z" fill="#5E6E99"/>
</svg>
