<svg width="24" height="24" viewBox="0 0 24 24" xmlns="http://www.w3.org/2000/svg">
<path d="M12 4C7.58172 4 4 7.58172 4 12C4 16.4183 7.58172 20 12 20C16.4183 20 20 16.4183 20 12C20 7.58172 16.4183 4 12 4ZM2 12C2 6.47715 6.47715 2 12 2C17.5228 2 22 6.47715 22 12C22 17.5228 17.5228 22 12 22C6.47715 22 2 17.5228 2 12Z"/>
<path d="M12 2.25C12.4142 2.25 12.75 2.58579 12.75 3V21C12.75 21.4142 12.4142 21.75 12 21.75C11.5858 21.75 11.25 21.4142 11.25 21V3C11.25 2.58579 11.5858 2.25 12 2.25Z"/>
<path d="M14.1513 2.83561C14.518 2.64308 14.9714 2.7843 15.164 3.15105L14.4999 3.49966C15.164 3.15105 15.1639 3.15086 15.164 3.15105L15.165 3.15298L15.1667 3.15639L15.1725 3.16756L15.1927 3.20706C15.2098 3.24092 15.2342 3.28969 15.2647 3.35253C15.3258 3.47818 15.4116 3.66021 15.514 3.89173C15.7186 4.35446 15.9898 5.01676 16.2609 5.82334C16.8008 7.43043 17.3499 9.64025 17.3499 11.9998C17.3499 14.3593 16.8008 16.569 16.2608 18.1761C15.9898 18.9827 15.7186 19.6449 15.514 20.1076C15.4116 20.3392 15.3258 20.5212 15.2647 20.6468C15.2342 20.7097 15.2098 20.7584 15.1927 20.7923L15.1725 20.8318L15.1667 20.843L15.165 20.8464L15.1644 20.8475C15.1643 20.8477 15.164 20.8483 14.4999 20.4997L15.1644 20.8475C14.9718 21.2143 14.518 21.3563 14.1513 21.1637C13.7847 20.9712 13.6434 20.5181 13.8357 20.1514C13.8357 20.1513 13.8356 20.1515 13.8357 20.1514L13.8393 20.1443L13.8543 20.115C13.8679 20.0881 13.8887 20.0465 13.9156 19.9912C13.9694 19.8805 14.0476 19.7149 14.1421 19.5011C14.3313 19.0732 14.585 18.4542 14.839 17.6983C15.349 16.1804 15.8499 14.1402 15.8499 11.9998C15.8499 9.85928 15.349 7.81904 14.839 6.30109C14.585 5.54515 14.3313 4.92616 14.1421 4.49825C14.0476 4.28446 13.9694 4.11882 13.9156 4.00813C13.8887 3.9528 13.8679 3.91125 13.8543 3.88431L13.8393 3.855L13.8361 3.84877C13.8361 3.84869 13.8362 3.84886 13.8361 3.84877M14.1513 2.83561C13.7846 3.0281 13.6438 3.48207 13.8361 3.84877L14.1513 2.83561Z"/>
<path d="M9.84871 2.83561C9.48196 2.64308 9.02858 2.7843 8.83604 3.15105L9.50009 3.49966C8.83604 3.15105 8.83613 3.15086 8.83604 3.15105L8.83503 3.15298L8.83325 3.15639L8.82747 3.16756L8.8073 3.20706C8.79017 3.24092 8.76582 3.28969 8.73529 3.35253C8.67423 3.47818 8.58837 3.66021 8.48601 3.89173C8.28144 4.35446 8.01016 5.01676 7.73915 5.82334C7.19917 7.43043 6.65009 9.64025 6.65009 11.9998C6.65009 14.3593 7.19918 16.569 7.73915 18.1761C8.01016 18.9827 8.28144 19.6449 8.48602 20.1076C8.58837 20.3392 8.67423 20.5212 8.73529 20.6468C8.76583 20.7097 8.79018 20.7584 8.80731 20.7923L8.82747 20.8318L8.83326 20.843L8.83503 20.8464L8.83564 20.8475C8.83573 20.8477 8.83605 20.8483 9.50009 20.4997L8.83564 20.8475C9.02818 21.2143 9.48198 21.3563 9.84872 21.1637C10.2153 20.9712 10.3566 20.5181 10.1643 20.1514C10.1643 20.1513 10.1644 20.1515 10.1643 20.1514L10.1607 20.1443L10.1457 20.115C10.1321 20.0881 10.1113 20.0465 10.0844 19.9912C10.0306 19.8805 9.95243 19.7149 9.85792 19.5011C9.66874 19.0732 9.41502 18.4542 9.16103 17.6983C8.65101 16.1804 8.15009 14.1402 8.15009 11.9998C8.15009 9.85928 8.65101 7.81904 9.16103 6.30109C9.41503 5.54515 9.66874 4.92616 9.85792 4.49825C9.95244 4.28446 10.0306 4.11882 10.0844 4.00813C10.1113 3.9528 10.1321 3.91125 10.1457 3.88431L10.1607 3.855L10.1639 3.84877C10.1639 3.84869 10.1638 3.84886 10.1639 3.84877M9.84871 2.83561C10.2154 3.0281 10.3562 3.48207 10.1639 3.84877L9.84871 2.83561Z"/>
<path d="M2.25 12C2.25 11.5858 2.58579 11.25 3 11.25H21C21.4142 11.25 21.75 11.5858 21.75 12C21.75 12.4142 21.4142 12.75 21 12.75H3C2.58579 12.75 2.25 12.4142 2.25 12Z"/>
<path d="M3.25 8C3.25 7.58579 3.58579 7.25 4 7.25H20C20.4142 7.25 20.75 7.58579 20.75 8C20.75 8.41421 20.4142 8.75 20 8.75H4C3.58579 8.75 3.25 8.41421 3.25 8Z"/>
<path d="M3.25 16C3.25 15.5858 3.58579 15.25 4 15.25H20C20.4142 15.25 20.75 15.5858 20.75 16C20.75 16.4142 20.4142 16.75 20 16.75H4C3.58579 16.75 3.25 16.4142 3.25 16Z"/>
</svg>
