<svg width="24" height="24" viewBox="0 0 24 24" fill="none" xmlns="http://www.w3.org/2000/svg">
<path fill-rule="evenodd" clip-rule="evenodd" d="M12 4C7.58172 4 4 7.58172 4 12C4 16.4183 7.58172 20 12 20C16.4183 20 20 16.4183 20 12C20 7.58172 16.4183 4 12 4ZM2 12C2 6.47715 6.47715 2 12 2C17.5228 2 22 6.47715 22 12C22 17.5228 17.5228 22 12 22C6.47715 22 2 17.5228 2 12Z" fill="#1D2654"/>
<path fill-rule="evenodd" clip-rule="evenodd" d="M12 2.25C12.4142 2.25 12.75 2.58579 12.75 3V21C12.75 21.4142 12.4142 21.75 12 21.75C11.5858 21.75 11.25 21.4142 11.25 21V3C11.25 2.58579 11.5858 2.25 12 2.25Z" fill="#1D2654"/>
<path fill-rule="evenodd" clip-rule="evenodd" d="M14.1514 2.83586C14.5181 2.64332 14.9715 2.78454 15.1641 3.15129L14.5 3.49991C15.1641 3.15129 15.164 3.15111 15.1641 3.15129L15.1651 3.15323L15.1668 3.15663L15.1726 3.1678L15.1928 3.2073C15.2099 3.24116 15.2343 3.28994 15.2648 3.35278C15.3259 3.47842 15.4117 3.66045 15.5141 3.89198C15.7187 4.35471 15.9899 5.017 16.2609 5.82358C16.8009 7.43068 17.35 9.64049 17.35 12C17.35 14.3595 16.8009 16.5693 16.2609 18.1763C15.9899 18.9829 15.7186 19.6452 15.5141 20.1079C15.4117 20.3394 15.3259 20.5214 15.2648 20.6471C15.2343 20.7099 15.2099 20.7587 15.1928 20.7925L15.1726 20.832L15.1668 20.8432L15.1651 20.8466L15.1645 20.8478C15.1644 20.8479 15.164 20.8485 14.5 20.4999L15.1645 20.8478C14.9719 21.2145 14.5181 21.3565 14.1514 21.164C13.7847 20.9715 13.6435 20.5183 13.8358 20.1516C13.8358 20.1515 13.8357 20.1517 13.8358 20.1516L13.8394 20.1446L13.8544 20.1153C13.868 20.0883 13.8888 20.0468 13.9157 19.9914C13.9695 19.8808 14.0477 19.7151 14.1422 19.5013C14.3314 19.0734 14.5851 18.4545 14.8391 17.6986C15.3491 16.1807 15.85 14.1405 15.85 12C15.85 9.85952 15.3491 7.81929 14.8391 6.30133C14.5851 5.54539 14.3313 4.92641 14.1422 4.49849C14.0477 4.2847 13.9694 4.11906 13.9157 4.00838C13.8888 3.95305 13.868 3.91149 13.8544 3.88455L13.8394 3.85524L13.8362 3.84902C13.8362 3.84893 13.8362 3.8491 13.8362 3.84902M14.1514 2.83586C13.7847 3.02835 13.6439 3.48232 13.8362 3.84902L14.1514 2.83586Z" fill="#1D2654"/>
<path fill-rule="evenodd" clip-rule="evenodd" d="M9.84862 2.83586C9.48187 2.64332 9.02849 2.78454 8.83595 3.15129L9.5 3.49991C8.83595 3.15129 8.83604 3.15111 8.83595 3.15129L8.83493 3.15323L8.83316 3.15663L8.82738 3.1678L8.80721 3.2073C8.79008 3.24116 8.76573 3.28994 8.73519 3.35278C8.67414 3.47842 8.58828 3.66045 8.48592 3.89198C8.28135 4.35471 8.01007 5.017 7.73906 5.82358C7.19908 7.43068 6.65 9.64049 6.65 12C6.65 14.3595 7.19908 16.5693 7.73906 18.1763C8.01007 18.9829 8.28135 19.6452 8.48592 20.1079C8.58828 20.3394 8.67414 20.5214 8.7352 20.6471C8.76574 20.7099 8.79009 20.7587 8.80722 20.7925L8.82738 20.832L8.83317 20.8432L8.83494 20.8466L8.83554 20.8478C8.83564 20.8479 8.83596 20.8485 9.5 20.4999L8.83554 20.8478C9.02809 21.2145 9.48189 21.3565 9.84863 21.164C10.2153 20.9715 10.3565 20.5183 10.1642 20.1516C10.1642 20.1515 10.1643 20.1517 10.1642 20.1516L10.1606 20.1446L10.1456 20.1153C10.132 20.0883 10.1112 20.0468 10.0843 19.9914C10.0305 19.8808 9.95234 19.7151 9.85783 19.5013C9.66865 19.0734 9.41493 18.4545 9.16094 17.6986C8.65092 16.1807 8.15 14.1405 8.15 12C8.15 9.85952 8.65092 7.81929 9.16094 6.30133C9.41494 5.54539 9.66865 4.92641 9.85783 4.49849C9.95235 4.2847 10.0306 4.11906 10.0843 4.00838C10.1112 3.95305 10.132 3.91149 10.1456 3.88455L10.1606 3.85524L10.1638 3.84902C10.1638 3.84893 10.1638 3.8491 10.1638 3.84902M9.84862 2.83586C10.2153 3.02835 10.3561 3.48232 10.1638 3.84902L9.84862 2.83586Z" fill="#1D2654"/>
<path fill-rule="evenodd" clip-rule="evenodd" d="M2.25 12C2.25 11.5858 2.58579 11.25 3 11.25H21C21.4142 11.25 21.75 11.5858 21.75 12C21.75 12.4142 21.4142 12.75 21 12.75H3C2.58579 12.75 2.25 12.4142 2.25 12Z" fill="#1D2654"/>
<path fill-rule="evenodd" clip-rule="evenodd" d="M3.25 8C3.25 7.58579 3.58579 7.25 4 7.25H20C20.4142 7.25 20.75 7.58579 20.75 8C20.75 8.41421 20.4142 8.75 20 8.75H4C3.58579 8.75 3.25 8.41421 3.25 8Z" fill="#1D2654"/>
<path fill-rule="evenodd" clip-rule="evenodd" d="M3.25 16C3.25 15.5858 3.58579 15.25 4 15.25H20C20.4142 15.25 20.75 15.5858 20.75 16C20.75 16.4142 20.4142 16.75 20 16.75H4C3.58579 16.75 3.25 16.4142 3.25 16Z" fill="#1D2654"/>
</svg>
