<svg width="24" height="24" fill="none" xmlns="http://www.w3.org/2000/svg"><path d="M1.7 4.316a.734.734 0 0 0-.398.413c-.055.132-.062.933-.062 7.271s.007 7.139.062 7.271a.734.734 0 0 0 .398.413c.154.072.527.074 10.291.075 9.056.001 10.147-.006 10.28-.061a.734.734 0 0 0 .413-.398c.071-.154.074-.443.074-7.3s-.003-7.146-.074-7.3a.734.734 0 0 0-.413-.398c-.133-.055-1.224-.062-10.28-.061-9.764.001-10.137.003-10.291.075M21.24 12v6.24H2.76V5.76h18.48V12M5.746 6.298c-.315.113-.454.323-.504.762-.077.689-.493 1.105-1.182 1.182a1.651 1.651 0 0 0-.413.094.797.797 0 0 0-.365.455c-.059.213-.057 6.214.003 6.428.087.314.423.54.803.541.235 0 .572.147.763.333.229.223.351.486.391.847.019.163.061.348.094.413a.797.797 0 0 0 .455.365c.216.06 12.212.057 12.428-.003.314-.087.54-.423.541-.803.001-.561.591-1.151 1.152-1.152.38-.001.716-.227.803-.541.062-.223.062-6.215 0-6.438-.087-.314-.423-.54-.803-.541-.561-.001-1.151-.591-1.152-1.152-.001-.38-.227-.716-.541-.803-.113-.032-1.921-.044-6.239-.043-5.046.001-6.106.011-6.234.056M17.419 7.95a2.87 2.87 0 0 0 1.631 1.631l.19.07v4.698l-.19.07a2.87 2.87 0 0 0-1.631 1.631l-.07.19H6.651l-.07-.19c-.262-.712-.889-1.351-1.578-1.609l-.243-.091v-4.7l.243-.091c.689-.258 1.316-.897 1.578-1.609l.07-.19h10.698l.07.19m-5.859.329c-.441.056-.762.156-1.22.381a3.496 3.496 0 0 0-1.681 1.68c-.293.594-.391 1.009-.391 1.66 0 .627.098 1.059.367 1.62a3.604 3.604 0 0 0 1.705 1.72c.601.299 1.004.393 1.68.39.421-.002.593-.021.903-.102a3.775 3.775 0 0 0 2.722-2.77 4.101 4.101 0 0 0 0-1.716 3.76 3.76 0 0 0-2-2.502c-.595-.297-1.437-.442-2.085-.361m.998 1.54c.39.104.717.295 1.022.597.451.446.659.946.659 1.584 0 .634-.207 1.131-.657 1.582-.451.45-.948.657-1.582.657-.638 0-1.138-.208-1.584-.659-.45-.454-.655-.948-.655-1.58 0-.187.026-.438.058-.558a2.322 2.322 0 0 1 1.605-1.621c.264-.072.866-.073 1.134-.002" fill-rule="evenodd"/></svg>
