<svg width="24" height="24" viewBox="0 0 24 24" fill="none" xmlns="http://www.w3.org/2000/svg">
<rect x="2" y="5" width="20" height="14" stroke-width="1.5" stroke-linecap="round" stroke-linejoin="round"/>
<rect x="2" y="5" width="20" height="14" stroke-width="1.5" stroke-linecap="round" stroke-linejoin="round"/>
<circle cx="12" cy="12" r="3" stroke-width="1.5" stroke-linecap="round" stroke-linejoin="round"/>
<path d="M4 9V8.25C3.58579 8.25 3.25 8.58579 3.25 9H4ZM6 7V6.25C5.58579 6.25 5.25 6.58579 5.25 7H6ZM4 15H3.25C3.25 15.4142 3.58579 15.75 4 15.75V15ZM6 17H5.25C5.25 17.4142 5.58579 17.75 6 17.75V17ZM18 17V17.75C18.4142 17.75 18.75 17.4142 18.75 17H18ZM20 15V15.75C20.4142 15.75 20.75 15.4142 20.75 15H20ZM20 9H20.75C20.75 8.58579 20.4142 8.25 20 8.25V9ZM18 7H18.75C18.75 6.58579 18.4142 6.25 18 6.25V7ZM4 9.75C5.51878 9.75 6.75 8.51878 6.75 7H5.25C5.25 7.69036 4.69036 8.25 4 8.25V9.75ZM4.75 15V9H3.25V15H4.75ZM4 15.75C4.69036 15.75 5.25 16.3096 5.25 17H6.75C6.75 15.4812 5.51878 14.25 4 14.25V15.75ZM18 16.25H6V17.75H18V16.25ZM20 14.25C18.4812 14.25 17.25 15.4812 17.25 17H18.75C18.75 16.3096 19.3096 15.75 20 15.75V14.25ZM19.25 9V15H20.75V9H19.25ZM17.25 7C17.25 8.51878 18.4812 9.75 20 9.75V8.25C19.3096 8.25 18.75 7.69036 18.75 7H17.25ZM6 7.75H18V6.25H6V7.75Z" />
</svg>
