<svg width="24" height="24" viewBox="0 0 24 24" xmlns="http://www.w3.org/2000/svg">
<path d="M12.1657 6.45249C14.9743 3.64385 19.1873 2.94169 20.9427 2.94169C20.9427 4.69709 20.2405 8.91004 17.4319 11.7187C14.6232 14.5273 11.288 16.1072 9.97143 16.546L8.65488 15.2295L7.33833 13.9129C7.77718 12.5964 9.35704 9.26112 12.1657 6.45249Z" stroke="#1D2654" stroke-width="1.5" stroke-linecap="round" stroke-linejoin="round"/>
<path d="M10.6297 7.9888L6.68002 8.42765L2.9498 12.1579L8.21599 11.719" stroke-width="1.5" stroke-linecap="round" stroke-linejoin="round"/>
<path d="M15.8957 13.2553L15.4569 17.205L11.7267 20.9352L12.1655 15.669" stroke-width="1.5" stroke-linecap="round" stroke-linejoin="round"/>
<circle cx="15.2378" cy="8.64775" r="1.86188" transform="rotate(45 15.2378 8.64775)" stroke-width="1.5" stroke-linecap="square"/>
<path d="M7.33828 19.1801C6.02173 20.4967 3.82748 20.0578 3.82748 20.0578C3.82748 20.0578 3.38863 17.8636 4.70518 16.547C5.43229 15.8199 6.61117 15.8199 7.33828 16.547C8.06539 17.2741 8.06539 18.453 7.33828 19.1801Z" stroke-width="1.5" stroke-linecap="round" stroke-linejoin="round"/>
</svg>
