<svg width="24" height="24" fill="none" xmlns="http://www.w3.org/2000/svg"><path d="M20 2.243c-2.691.257-5.421 1.301-7.4 2.83-.41.317-1.308 1.189-1.823 1.769l-.374.423-1.912.21c-1.051.115-1.974.229-2.051.252-.187.056-4.05 3.891-4.163 4.133a.658.658 0 0 0-.015.571.7.7 0 0 0 .526.451c.104.023 3.036-.194 4.056-.301l.224-.024-.218.546c-.234.584-.276.765-.232 1.004.025.134.208.333 1.475 1.607.814.818 1.503 1.479 1.576 1.51.242.105.459.071 1.057-.167.309-.122.569-.215.578-.207.008.009-.057.869-.144 1.913-.171 2.034-.183 2.29-.117 2.464.128.34.593.542.944.411.164-.061 4.124-4.028 4.171-4.178.02-.066.132-.984.248-2.04.206-1.887.212-1.922.313-2.02.057-.055.358-.331.67-.613 1.672-1.516 2.776-3.258 3.552-5.607.554-1.677.905-4.097.663-4.572-.201-.393-.527-.468-1.604-.365m.139 1.667c-.241 1.79-.665 3.233-1.355 4.607-.76 1.515-1.593 2.526-3.168 3.846-1.426 1.194-3.397 2.428-4.985 3.119l-.451.197-.985-.985-.985-.984.098-.245c.18-.451.763-1.599 1.12-2.205 1.152-1.956 2.741-3.919 3.976-4.916 1.589-1.281 3.775-2.184 6.156-2.542a18.2 18.2 0 0 1 .552-.078c.04-.003.047.042.027.186m-5.451 2.191c-.884.192-1.616.852-1.931 1.739-.133.375-.137 1.174-.008 1.58.25.79.909 1.455 1.691 1.706.37.118.983.144 1.376.056C17.2 10.874 18.075 9.5 17.779 8.1A2.65 2.65 0 0 0 16.4 6.325a2.59 2.59 0 0 0-1.712-.224m1.016 1.537c.723.319.86 1.336.249 1.858-.441.379-1.077.346-1.499-.077-.391-.391-.442-.907-.137-1.388.283-.445.883-.616 1.387-.393M9.12 8.942c0 .011-.112.187-.248.39-.222.33-.975 1.558-1.001 1.635-.01.028-2.871.286-2.896.261-.007-.006.455-.479 1.027-1.05L7.04 9.14l.91-.105c.967-.112 1.17-.128 1.17-.093m5.739 6.886-.111 1.032-1.032 1.039c-.568.571-1.041 1.029-1.052 1.018-.011-.011.033-.658.098-1.438.102-1.215.129-1.427.188-1.471.039-.029.306-.192.593-.363.288-.171.72-.439.959-.596.24-.156.443-.277.452-.268.009.009-.034.48-.095 1.047m-9.173-.545c-1.304.169-2.263 1.257-2.59 2.938-.048.247-.07.553-.07.979 0 1.348.143 1.552 1.146 1.647 1.834.173 3.545-.569 4.169-1.808.194-.386.272-.717.274-1.159.001-.444-.056-.714-.234-1.1a2.545 2.545 0 0 0-1.642-1.413 2.653 2.653 0 0 0-1.053-.084m.719 1.538c.234.08.449.26.582.487.084.144.111.25.125.497.016.28.007.337-.089.533-.135.276-.433.543-.803.721-.403.194-.697.263-1.23.289l-.47.023v-.322c0-1.032.49-1.999 1.133-2.236.182-.067.543-.063.752.008" fill-rule="evenodd"/></svg>
