<svg width="600" height="600" viewBox="0 0 600 600" fill="none" xmlns="http://www.w3.org/2000/svg">
<rect width="600" height="600" fill="#101631"/>
<path d="M300 0L311.978 186.038L362.374 6.55573L335.41 191.019L422.021 25.9364L357.295 200.762L476.336 57.2949L376.676 214.843L522.943 99.2608L392.705 232.646L559.808 150L404.683 253.392L585.317 207.295L412.086 276.175L598.357 268.641L414.59 300L598.357 331.359L412.086 323.825L585.317 392.705L404.683 346.608L559.808 450L392.705 367.354L522.943 500.739L376.676 385.157L476.336 542.705L357.295 399.238L422.021 574.064L335.41 408.981L362.374 593.444L311.978 413.962L300 600L288.022 413.962L237.626 593.444L264.59 408.981L177.979 574.064L242.705 399.238L123.664 542.705L223.324 385.157L77.0565 500.739L207.295 367.354L40.1924 450L195.317 346.608L14.683 392.705L187.914 323.825L1.64343 331.359L185.41 300L1.64343 268.641L187.914 276.175L14.683 207.295L195.317 253.392L40.1924 150L207.295 232.646L77.0565 99.2608L223.324 214.843L123.664 57.2949L242.705 200.762L177.979 25.9364L264.59 191.019L237.626 6.55573L288.022 186.038L300 0Z" fill="url(#paint0_radial_1251_17020)"/>
<defs>
<radialGradient id="paint0_radial_1251_17020" cx="0" cy="0" r="1" gradientUnits="userSpaceOnUse" gradientTransform="translate(300 300) rotate(90) scale(300)">
<stop stop-color="white" stop-opacity="0.3"/>
<stop offset="1" stop-color="white" stop-opacity="0"/>
</radialGradient>
</defs>
</svg>
