<svg width="24" height="24" viewBox="0 0 24 24" fill="none" xmlns="http://www.w3.org/2000/svg">
<path d="M13.9096 14.2669C14.0366 13.1641 13.2456 12.1671 12.1428 12.0401C11.04 11.9131 10.043 12.7041 9.91601 13.8069C9.789 14.9097 10.58 15.9067 11.6828 16.0337C12.7856 16.1607 13.7826 15.3697 13.9096 14.2669Z" stroke="#1D2654" stroke-width="1.5" stroke-miterlimit="10" stroke-linecap="round"/>
<path d="M7.09521 9.20996L10.5 12.5" stroke="#1D2654" stroke-width="1.5" stroke-linecap="round" stroke-linejoin="round"/>
<path d="M18.5027 7.39502L16.9727 8.91752" stroke="#1D2654" stroke-width="1.5" stroke-miterlimit="10" stroke-linecap="round"/>
<path d="M21.2025 13.8901H19.0425" stroke="#1D2654" stroke-width="1.5" stroke-miterlimit="10" stroke-linecap="round"/>
<path d="M4.95736 13.8901H2.79736" stroke="#1D2654" stroke-width="1.5" stroke-miterlimit="10" stroke-linecap="round"/>
<path d="M12 4.70264V6.86264" stroke="#1D2654" stroke-width="1.5" stroke-miterlimit="10" stroke-linecap="round"/>
<path d="M19.4399 19.2973C20.5882 17.7313 21.2058 15.8392 21.2024 13.8973C21.2024 11.4567 20.2328 9.11598 18.507 7.39017C16.7812 5.66437 14.4405 4.69482 11.9999 4.69482C9.55922 4.69482 7.21853 5.66437 5.49273 7.39017C3.76692 9.11598 2.79738 11.4567 2.79738 13.8973C2.79399 15.8392 3.41156 17.7313 4.55988 19.2973H19.4399Z" stroke="#1D2654" stroke-width="1.5" stroke-miterlimit="10" stroke-linecap="round"/>
</svg>
