<svg width="32" height="32" viewBox="0 0 32 32" fill="none" xmlns="http://www.w3.org/2000/svg">
<path fill-rule="evenodd" clip-rule="evenodd" d="M15.9996 4.05688C9.10323 4.05688 1.52479 7.22674 1.07008 10.8494C0.783352 13.1338 4.92644 19.2596 9.20475 23.4738C7.68023 24.8823 7.01704 26.6133 6.94288 27.7553H15.9996H25.0563C24.9822 26.6133 24.319 24.8823 22.7945 23.4738C27.0728 19.2596 31.2159 13.1338 30.9291 10.8494C30.4744 7.22674 22.896 4.05688 15.9996 4.05688Z" fill="#FF6854"/>
<path fill-rule="evenodd" clip-rule="evenodd" d="M3.33824 9.03929C2.55645 9.75413 2.18946 10.4184 2.11887 10.9807C2.08471 11.253 2.18578 11.8398 2.58904 12.7741C2.97201 13.6614 3.56271 14.7178 4.30989 15.8589C5.80329 18.1395 7.86083 20.6663 9.94663 22.7208C10.1524 22.9235 10.2663 23.2016 10.2616 23.4904C10.257 23.7793 10.1344 24.0536 9.92218 24.2496C9.06651 25.0402 8.53983 25.9329 8.25735 26.6984H23.7427C23.4602 25.9329 22.9335 25.0402 22.0778 24.2496C21.8656 24.0536 21.743 23.7793 21.7384 23.4904C21.7338 23.2016 21.8476 22.9235 22.0534 22.7208C24.1392 20.6663 26.1967 18.1395 27.6901 15.8589C28.4373 14.7178 29.028 13.6614 29.411 12.7741C29.8142 11.8398 29.9153 11.253 29.8811 10.9807C29.8105 10.4184 29.4436 9.75413 28.6618 9.03929C27.8889 8.33264 26.7911 7.65295 25.4527 7.06058C22.7761 5.87588 19.3033 5.11324 16 5.11324C12.6967 5.11324 9.22387 5.87588 6.54727 7.06058C5.20895 7.65295 4.1111 8.33264 3.33824 9.03929ZM5.69196 5.12818C8.64235 3.82228 12.4069 3 16 3C19.5931 3 23.3577 3.82228 26.308 5.12818C27.7832 5.78111 29.0963 6.57314 30.0878 7.47971C31.0703 8.37811 31.8211 9.46859 31.9779 10.7176C32.0871 11.5876 31.7778 12.6231 31.3512 13.6116C30.9043 14.647 30.2456 15.8138 29.458 17.0165C28.0577 19.1551 26.2017 21.4804 24.2673 23.4871C25.4628 24.9033 26.0335 26.491 26.1111 27.6866C26.13 27.9781 26.0274 28.2644 25.8277 28.4776C25.6279 28.6907 25.3488 28.8117 25.0567 28.8117H6.94328C6.65116 28.8117 6.37207 28.6907 6.17231 28.4776C5.97256 28.2644 5.86996 27.9781 5.88889 27.6866C5.96652 26.491 6.53718 24.9033 7.73274 23.4871C5.79834 21.4804 3.94233 19.1551 2.54196 17.0165C1.75442 15.8138 1.09572 14.647 0.648807 13.6116C0.222181 12.6231 -0.0871074 11.5876 0.0220913 10.7176C0.178859 9.46859 0.92969 8.37811 1.91225 7.47971C2.90375 6.57314 4.21679 5.78111 5.69196 5.12818Z" fill="#1D2654"/>
<path fill-rule="evenodd" clip-rule="evenodd" d="M13.309 3.44775C12.9725 3.20175 12.5003 3.27511 12.2543 3.61161C12.0078 3.94872 11.8848 4.44848 11.8084 4.9295C11.7256 5.45061 11.6772 6.10038 11.6608 6.84802C11.6279 8.34621 11.7226 10.2999 11.9604 12.53C12.3598 16.2755 13.1671 20.8404 14.4776 25.3936C12.0371 22.8273 10.2134 19.3448 9.00835 15.9888C8.25744 13.8977 7.7578 11.8861 7.49981 10.2269C7.23544 8.52679 7.24387 7.31179 7.41142 6.74625C7.52983 6.3466 7.30183 5.92663 6.90218 5.80822C6.50253 5.68982 6.08256 5.91781 5.96415 6.31746C5.69334 7.23153 5.74092 8.73945 6.00828 10.4589C6.28202 12.2193 6.80668 14.3239 7.58771 16.499C9.14158 20.8262 11.7548 25.5546 15.5511 28.3622C15.8158 28.558 16.1768 28.5596 16.4432 28.3662C16.7096 28.1728 16.82 27.8291 16.7159 27.5168C14.9623 22.256 13.9275 16.742 13.4613 12.3699C13.2282 10.1837 13.1388 8.29717 13.1699 6.88109C13.1854 6.17158 13.2309 5.5957 13.2991 5.1664C13.3332 4.95176 13.3711 4.78633 13.4087 4.66556C13.4428 4.55629 13.4684 4.51065 13.4727 4.50303C13.4734 4.50166 13.4735 4.50151 13.4728 4.50244C13.7188 4.16595 13.6455 3.69375 13.309 3.44775Z" fill="#1D2654"/>
<path fill-rule="evenodd" clip-rule="evenodd" d="M18.6906 3.44775C19.0271 3.20175 19.4993 3.27511 19.7453 3.61161C19.9918 3.94872 20.1148 4.44848 20.1912 4.9295C20.274 5.45061 20.3225 6.10038 20.3388 6.84802C20.3717 8.34621 20.277 10.2999 20.0392 12.53C19.6398 16.2755 18.8325 20.8404 17.522 25.3936C19.9625 22.8273 21.7862 19.3448 22.9913 15.9888C23.7422 13.8977 24.2418 11.8861 24.4998 10.2269C24.7642 8.52679 24.7557 7.31179 24.5882 6.74625C24.4698 6.3466 24.6978 5.92663 25.0974 5.80822C25.4971 5.68982 25.917 5.91781 26.0355 6.31746C26.3063 7.23153 26.2587 8.73945 25.9913 10.4589C25.7176 12.2193 25.1929 14.3239 24.4119 16.499C22.858 20.8262 20.2448 25.5546 16.4485 28.3622C16.1838 28.558 15.8228 28.5596 15.5564 28.3662C15.29 28.1728 15.1796 27.8291 15.2837 27.5168C17.0373 22.256 18.0721 16.742 18.5383 12.3699C18.7714 10.1837 18.8608 8.29717 18.8297 6.88109C18.8142 6.17158 18.7687 5.5957 18.7005 5.1664C18.6664 4.95176 18.6285 4.78633 18.5909 4.66556C18.5568 4.55629 18.5312 4.51065 18.5269 4.50303C18.5262 4.50166 18.5261 4.50151 18.5268 4.50244C18.2808 4.16595 18.3541 3.69375 18.6906 3.44775Z" fill="#1D2654"/>
</svg>
