<svg width="36" height="36" viewBox="0 0 36 36" fill="none" xmlns="http://www.w3.org/2000/svg">
<path d="M36 18C36 27.9411 27.9411 36 18 36C8.05888 36 0 27.9411 0 18C0 8.05888 8.05888 0 18 0C27.9411 0 36 8.05888 36 18Z" fill="#F7F9FB"/>
<path fill-rule="evenodd" clip-rule="evenodd" d="M18 7.72485C11.9656 7.72485 5.33449 10.4985 4.93663 13.6683C4.68574 15.6672 8.31093 21.0273 12.0545 24.7147C10.7205 25.9471 10.1402 27.4618 10.0753 28.461H18H25.9246C25.8597 27.4618 25.2794 25.9471 23.9454 24.7147C27.689 21.0273 31.3142 15.6672 31.0633 13.6683C30.6654 10.4985 24.0343 7.72485 18 7.72485Z" fill="#FF6854"/>
<path opacity="0.2" d="M18 13C12.4 13 7.66667 15.7333 6 17L8.4 20.8C9.66667 19.6667 13.04 17.4 18 17.4C22.96 17.4 26.0667 19.6667 27.2 20.8L29.6 17C28.0667 15.7333 23.6 13 18 13Z" fill="white"/>
<path fill-rule="evenodd" clip-rule="evenodd" d="M6.92096 12.0844C6.23689 12.7099 5.91578 13.2911 5.85401 13.7832C5.82412 14.0214 5.91256 14.5349 6.26541 15.3524C6.60051 16.1288 7.11737 17.0531 7.77116 18.0516C9.07788 20.0471 10.8782 22.258 12.7033 24.0557C12.8834 24.2331 12.983 24.4765 12.9789 24.7292C12.9749 24.9819 12.8676 25.222 12.6819 25.3935C11.9332 26.0852 11.4724 26.8664 11.2252 27.5362H24.7748C24.5277 26.8664 24.0668 26.0852 23.3181 25.3935C23.1324 25.222 23.0251 24.9819 23.0211 24.7292C23.017 24.4765 23.1166 24.2331 23.2967 24.0557C25.1218 22.258 26.9221 20.0471 28.2288 18.0516C28.8826 17.0531 29.3995 16.1288 29.7346 15.3524C30.0874 14.5349 30.1759 14.0214 30.146 13.7832C30.0842 13.2911 29.7631 12.7099 29.079 12.0844C28.4028 11.4661 27.4422 10.8714 26.2711 10.3531C23.9291 9.31644 20.8904 8.64913 18 8.64913C15.1096 8.64913 12.0709 9.31644 9.72886 10.3531C8.55783 10.8714 7.59721 11.4661 6.92096 12.0844ZM8.98046 8.6622C11.5621 7.51955 14.8561 6.80005 18 6.80005C21.1439 6.80005 24.4379 7.51955 27.0195 8.6622C28.3103 9.23352 29.4592 9.92654 30.3268 10.7198C31.1865 11.5059 31.8435 12.4601 31.9807 13.5529C32.0762 14.3142 31.8056 15.2203 31.4323 16.0852C31.0412 16.9912 30.4649 18.0122 29.7758 19.0645C28.5505 20.9358 26.9265 22.9704 25.2339 24.7263C26.28 25.9654 26.7793 27.3547 26.8472 28.4008C26.8638 28.6559 26.774 28.9064 26.5992 29.0929C26.4244 29.2794 26.1802 29.3852 25.9246 29.3852H10.0754C9.81976 29.3852 9.57556 29.2794 9.40077 29.0929C9.22599 28.9064 9.13621 28.6559 9.15277 28.4008C9.2207 27.3547 9.72003 25.9654 10.7661 24.7263C9.07355 22.9704 7.44954 20.9358 6.22421 19.0645C5.53512 18.0122 4.95875 16.9912 4.56771 16.0852C4.19441 15.2203 3.92378 14.3142 4.01933 13.5529C4.1565 12.4601 4.81348 11.5059 5.67322 10.7198C6.54078 9.92654 7.68969 9.23352 8.98046 8.6622Z" fill="#1D2654"/>
<path fill-rule="evenodd" clip-rule="evenodd" d="M15.6452 7.1914C15.3508 6.97616 14.9376 7.04035 14.7223 7.33478C14.5067 7.62975 14.3991 8.06704 14.3322 8.48793C14.2597 8.94391 14.2174 9.51245 14.203 10.1666C14.1743 11.4776 14.2571 13.1871 14.4652 15.1383C14.8146 18.4156 15.5211 22.41 16.6678 26.394C14.5323 24.1485 12.9366 21.1013 11.8822 18.1648C11.2251 16.3351 10.7879 14.575 10.5622 13.1232C10.3309 11.6356 10.3382 10.5724 10.4848 10.0776C10.5884 9.7279 10.3889 9.36042 10.0393 9.25682C9.68956 9.15321 9.32208 9.35271 9.21848 9.7024C8.98152 10.5022 9.02315 11.8216 9.25709 13.3261C9.49661 14.8665 9.95569 16.7081 10.6391 18.6112C11.9987 22.3975 14.2853 26.5349 17.607 28.9916C17.8386 29.1629 18.1545 29.1643 18.3877 28.9951C18.6208 28.8259 18.7173 28.5251 18.6262 28.2518C17.0918 23.6486 16.1864 18.8239 15.7785 14.9983C15.5746 13.0854 15.4963 11.4346 15.5235 10.1956C15.5371 9.57476 15.5769 9.07086 15.6366 8.69522C15.6664 8.50741 15.6995 8.36266 15.7325 8.25699C15.7623 8.16138 15.7847 8.12144 15.7884 8.11477C15.7891 8.11357 15.7892 8.11345 15.7886 8.11426C16.0038 7.81983 15.9396 7.40665 15.6452 7.1914Z" fill="#1D2654"/>
<path fill-rule="evenodd" clip-rule="evenodd" d="M20.3543 7.1914C20.6487 6.97616 21.0619 7.04035 21.2772 7.33478C21.4928 7.62975 21.6004 8.06704 21.6673 8.48793C21.7398 8.94391 21.7822 9.51245 21.7965 10.1666C21.8252 11.4776 21.7424 13.1871 21.5343 15.1383C21.1849 18.4156 20.4784 22.41 19.3317 26.394C21.4672 24.1485 23.0629 21.1013 24.1174 18.1648C24.7744 16.3351 25.2116 14.575 25.4373 13.1232C25.6687 11.6356 25.6613 10.5724 25.5147 10.0776C25.4111 9.7279 25.6106 9.36042 25.9603 9.25682C26.31 9.15321 26.6774 9.35271 26.781 9.7024C27.018 10.5022 26.9764 11.8216 26.7424 13.3261C26.5029 14.8665 26.0438 16.7081 25.3604 18.6112C24.0008 22.3975 21.7142 26.5349 18.3925 28.9916C18.1609 29.1629 17.845 29.1643 17.6119 28.9951C17.3787 28.8259 17.2822 28.5251 17.3733 28.2518C18.9077 23.6486 19.8131 18.8239 20.221 14.9983C20.425 13.0854 20.5032 11.4346 20.476 10.1956C20.4624 9.57476 20.4226 9.07086 20.3629 8.69522C20.3331 8.50741 20.3 8.36266 20.267 8.25699C20.2373 8.16138 20.2148 8.12144 20.2111 8.11477C20.2104 8.11357 20.2103 8.11345 20.2109 8.11426C19.9957 7.81983 20.0599 7.40665 20.3543 7.1914Z" fill="#1D2654"/>
</svg>
