<svg width="32" height="32" viewBox="0 0 32 32" fill="none" xmlns="http://www.w3.org/2000/svg">
<path d="M31.5 16C31.5 24.5604 24.5604 31.5 16 31.5C7.43959 31.5 0.5 24.5604 0.5 16C0.5 7.43959 7.43959 0.5 16 0.5C24.5604 0.5 31.5 7.43959 31.5 16Z" fill="#F7F9FB" stroke="#C7D6E4"/>
<path fill-rule="evenodd" clip-rule="evenodd" d="M15.9997 6.63721C10.5301 6.63721 4.5195 9.15126 4.15886 12.0245C3.93145 13.8363 7.21739 18.6947 10.6106 22.037C9.40147 23.1542 8.87547 24.527 8.81666 25.4328H15.9997H23.1827C23.1239 24.527 22.5979 23.1542 21.3888 22.037C24.782 18.6947 28.0679 13.8363 27.8405 12.0245C27.4798 9.15126 21.4693 6.63721 15.9997 6.63721Z" fill="#FF6854"/>
<path opacity="0.2" d="M15.9997 11.5557C11.0219 11.5557 6.81449 13.9853 5.33301 15.1112L7.46634 18.489C8.59227 17.4816 11.5908 15.4668 15.9997 15.4668C20.4086 15.4668 23.17 17.4816 24.1775 18.489L26.3108 15.1112C24.9478 13.9853 20.9775 11.5557 15.9997 11.5557Z" fill="white"/>
<path fill-rule="evenodd" clip-rule="evenodd" d="M5.79204 10.4077C5.14867 10.996 4.81303 11.5723 4.74704 12.0981C4.71123 12.3834 4.81557 12.901 5.13812 13.6483C5.44928 14.3692 5.92567 15.2198 6.52296 16.132C7.71699 17.9555 9.35996 19.973 11.0266 21.6147C11.142 21.7284 11.2059 21.8844 11.2033 22.0463C11.2007 22.2083 11.1319 22.3622 11.0129 22.4721C10.1823 23.2395 9.71996 24.1286 9.52168 24.84H22.478C22.2798 24.1286 21.8174 23.2395 20.9868 22.4721C20.8678 22.3622 20.799 22.2083 20.7964 22.0463C20.7938 21.8844 20.8577 21.7284 20.9731 21.6147C22.6398 19.973 24.2827 17.9555 25.4768 16.132C26.0741 15.2198 26.5504 14.3692 26.8616 13.6483C27.1842 12.901 27.2885 12.3834 27.2527 12.0981C27.1867 11.5723 26.8511 10.996 26.2077 10.4077C25.5693 9.82406 24.6736 9.27195 23.5963 8.7951C21.4416 7.84142 18.6534 7.22963 15.9999 7.22963C13.3463 7.22963 10.5581 7.84142 8.40344 8.7951C7.32611 9.27195 6.4304 9.82406 5.79204 10.4077ZM7.92375 7.71132C10.2319 6.68967 13.1838 6.04443 15.9999 6.04443C18.8159 6.04443 21.7678 6.68967 24.076 7.71132C25.2301 8.22214 26.2465 8.83726 27.0074 9.53306C27.7634 10.2243 28.3143 11.0396 28.4287 11.9505C28.5065 12.5711 28.2854 13.3403 27.9498 14.1179C27.6028 14.922 27.0882 15.8345 26.4683 16.7813C25.3283 18.5222 23.803 20.4224 22.2233 22.0388C23.2395 23.1647 23.7132 24.4545 23.7742 25.3942C23.7848 25.5577 23.7273 25.7183 23.6153 25.8378C23.5032 25.9573 23.3467 26.0252 23.1829 26.0252H8.81686C8.65302 26.0252 8.49649 25.9573 8.38446 25.8378C8.27243 25.7183 8.21489 25.5577 8.2255 25.3942C8.28652 24.4545 8.76026 23.1647 9.77642 22.0388C8.19669 20.4224 6.67139 18.5222 5.53142 16.7813C4.9115 15.8345 4.39697 14.922 4.04995 14.1179C3.7143 13.3403 3.49318 12.5711 3.57107 11.9505C3.6854 11.0396 4.23632 10.2243 4.99228 9.53306C5.75326 8.83726 6.76966 8.22214 7.92375 7.71132Z" fill="#1D2654"/>
<path fill-rule="evenodd" clip-rule="evenodd" d="M13.7454 6.3186C13.5693 6.18983 13.3221 6.22823 13.1933 6.40437C13.0292 6.62886 12.9367 6.9815 12.8764 7.36143C12.8126 7.76236 12.7746 8.26774 12.7618 8.85556C12.736 10.0327 12.8103 11.5732 12.9983 13.336C13.3362 16.505 14.0438 20.4166 15.2126 24.2628C12.9603 22.1619 11.3137 19.0953 10.2631 16.1696C9.66346 14.4997 9.26381 12.8918 9.05707 11.5622C8.84699 10.2112 8.84613 9.2081 8.99294 8.71257C9.05492 8.50337 8.93557 8.28354 8.72637 8.22156C8.51717 8.15958 8.29734 8.27892 8.23536 8.48812C8.03449 9.16609 8.06468 10.3225 8.27632 11.6836C8.49131 13.0662 8.90405 14.7229 9.51944 16.4366C10.7459 19.8521 12.8007 23.5585 15.7648 25.7507C15.9033 25.8532 16.0923 25.854 16.2318 25.7528C16.3712 25.6516 16.429 25.4716 16.3745 25.3081C14.9783 21.1195 14.155 16.7317 13.784 13.2522C13.5985 11.5123 13.5268 10.0071 13.5517 8.87287C13.5641 8.30501 13.6006 7.83831 13.6567 7.48544C13.7161 7.11158 13.7887 6.92871 13.8312 6.87068C13.9599 6.69454 13.9215 6.44737 13.7454 6.3186Z" fill="#1D2654"/>
<path fill-rule="evenodd" clip-rule="evenodd" d="M18.2541 6.3186C18.4303 6.18983 18.6774 6.22823 18.8062 6.40437C18.9703 6.62886 19.0628 6.9815 19.1232 7.36143C19.1869 7.76236 19.2249 8.26774 19.2378 8.85556C19.2635 10.0327 19.1892 11.5732 19.0012 13.336C18.6633 16.505 17.9557 20.4166 16.787 24.2628C19.0392 22.1619 20.6858 19.0953 21.7364 16.1696C22.3361 14.4997 22.7357 12.8918 22.9424 11.5622C23.1525 10.2112 23.1534 9.2081 23.0066 8.71257C22.9446 8.50337 23.0639 8.28354 23.2731 8.22156C23.4823 8.15958 23.7022 8.27892 23.7642 8.48812C23.965 9.16609 23.9348 10.3225 23.7232 11.6836C23.5082 13.0662 23.0955 14.7229 22.4801 16.4366C21.2536 19.8521 19.1988 23.5585 16.2347 25.7507C16.0962 25.8532 15.9072 25.854 15.7678 25.7528C15.6283 25.6516 15.5705 25.4716 15.625 25.3081C17.0212 21.1195 17.8445 16.7317 18.2155 13.2522C18.401 11.5123 18.4727 10.0071 18.4478 8.87287C18.4354 8.30501 18.3989 7.83831 18.3428 7.48544C18.2834 7.11158 18.2108 6.92871 18.1683 6.87068C18.0396 6.69454 18.078 6.44737 18.2541 6.3186Z" fill="#1D2654"/>
</svg>
