<svg width="100" height="100" viewBox="0 0 100 100" fill="none" xmlns="http://www.w3.org/2000/svg">
<path d="M100 50C100 77.6142 77.6142 100 50 100C22.3858 100 0 77.6142 0 50C0 22.3858 22.3858 0 50 0C77.6142 0 100 22.3858 100 50Z" fill="#F7F9FB"/>
<path fill-rule="evenodd" clip-rule="evenodd" d="M50 96.6667C75.7733 96.6667 96.6667 75.7733 96.6667 50C96.6667 24.2267 75.7733 3.33333 50 3.33333C24.2267 3.33333 3.33333 24.2267 3.33333 50C3.33333 75.7733 24.2267 96.6667 50 96.6667ZM50 100C77.6142 100 100 77.6142 100 50C100 22.3858 77.6142 0 50 0C22.3858 0 0 22.3858 0 50C0 77.6142 22.3858 100 50 100Z" fill="#C7D6E4"/>
<path d="M77.907 49.9997C77.907 65.4123 65.4126 77.9067 50 77.9067C34.5874 77.9067 22.093 65.4123 22.093 49.9997C22.093 34.5872 34.5874 22.0928 50 22.0928C65.4126 22.0928 77.907 34.5872 77.907 49.9997Z" fill="white"/>
<path fill-rule="evenodd" clip-rule="evenodd" d="M50 24.186C35.7433 24.186 24.186 35.7433 24.186 50C24.186 64.2567 35.7433 75.814 50 75.814C64.2567 75.814 75.814 64.2567 75.814 50C75.814 35.7433 64.2567 24.186 50 24.186ZM20 50C20 33.4315 33.4315 20 50 20C66.5685 20 80 33.4315 80 50C80 66.5685 66.5685 80 50 80C33.4315 80 20 66.5685 20 50Z" fill="#1D2654"/>
<path d="M41.007 45.9696C38.5264 40.7603 34.1853 39.7681 32.0145 39.7681C30.4644 41.3185 28.914 46.2797 29.5343 52.4812C30.6198 63.334 42.2473 71.7061 50.9294 70.7758C59.6498 69.8415 67.0535 63.334 69.5341 57.7526C68.5005 59.0962 65.069 61.8456 57.131 62.0937C47.2085 62.4037 44.1078 52.4812 41.007 45.9696Z" fill="url(#paint0_linear_1238_13796)"/>
<defs>
<linearGradient id="paint0_linear_1238_13796" x1="49.4642" y1="39.7681" x2="49.4642" y2="70.2834" gradientUnits="userSpaceOnUse">
<stop stop-color="#FFB8AE"/>
<stop offset="1" stop-color="#FFB8AE" stop-opacity="0"/>
</linearGradient>
</defs>
</svg>
