<svg width="32" height="32" viewBox="0 0 32 32" fill="none" xmlns="http://www.w3.org/2000/svg">
<path d="M32 16C32 24.8366 24.8366 32 16 32C7.16344 32 0 24.8366 0 16C0 7.16344 7.16344 0 16 0C24.8366 0 32 7.16344 32 16Z" fill="#F7F9FB"/>
<path fill-rule="evenodd" clip-rule="evenodd" d="M16 30.9333C24.2475 30.9333 30.9333 24.2475 30.9333 16C30.9333 7.75255 24.2475 1.06667 16 1.06667C7.75255 1.06667 1.06667 7.75255 1.06667 16C1.06667 24.2475 7.75255 30.9333 16 30.9333ZM16 32C24.8366 32 32 24.8366 32 16C32 7.16344 24.8366 0 16 0C7.16344 0 0 7.16344 0 16C0 24.8366 7.16344 32 16 32Z" fill="#CCD4E0"/>
<path fill-rule="evenodd" clip-rule="evenodd" d="M16.0012 5.19995C10.6792 5.19995 4.83099 7.64612 4.4801 10.4417C4.25883 12.2046 7.45595 16.9318 10.7575 20.1838C9.58103 21.2708 9.06925 22.6065 9.01203 23.4878H15.9752C15.9839 23.4879 15.9925 23.4879 16.0012 23.4879C16.0098 23.4879 16.0184 23.4879 16.0271 23.4878H22.9901C22.9329 22.6066 22.4211 21.2708 21.2448 20.1839C24.5463 16.9318 27.7435 12.2046 27.5222 10.4417C27.1713 7.64612 21.3231 5.19995 16.0012 5.19995Z" fill="url(#paint0_linear_294_5496)"/>
<path fill-rule="evenodd" clip-rule="evenodd" d="M6.11151 8.91574C5.49153 9.4826 5.17647 10.0306 5.11485 10.5215C5.08226 10.7812 5.17753 11.2713 5.49065 11.9968C5.79149 12.6938 6.25296 13.5182 6.8329 14.4038C7.99218 16.1743 9.58788 18.1338 11.2063 19.728C11.331 19.8507 11.3999 20.0192 11.3971 20.1941C11.3943 20.3691 11.32 20.5353 11.1915 20.654C10.4229 21.3642 9.98342 22.1814 9.782 22.8479H15.975L15.9835 22.8479C15.9893 22.848 15.9951 22.8481 16.0009 22.8481C16.0067 22.8481 16.0125 22.848 16.0183 22.8479L16.0268 22.8479H22.2196C22.0182 22.1814 21.5788 21.3642 20.8102 20.6541C20.6817 20.5353 20.6074 20.3692 20.6046 20.1942C20.6018 20.0193 20.6707 19.8508 20.7954 19.7281C22.4138 18.1339 24.0096 16.1743 25.1689 14.4039C25.7488 13.5182 26.2103 12.6939 26.5111 11.9968C26.8243 11.2713 26.9195 10.7812 26.8869 10.5215C26.8253 10.0306 26.5103 9.4826 25.8903 8.91574C25.2757 8.35382 24.4107 7.81998 23.3665 7.35783C21.2783 6.43354 18.5741 5.84006 16.0009 5.84006C13.4277 5.84006 10.7235 6.43354 8.63527 7.35783C7.59113 7.81998 6.72606 8.35382 6.11151 8.91574ZM8.1172 6.18736C10.3713 5.18966 13.2522 4.56006 16.0009 4.56006C18.7496 4.56006 21.6305 5.18966 23.8846 6.18736C25.0116 6.6862 26.007 7.28808 26.754 7.97109C27.4956 8.64914 28.0432 9.45529 28.157 10.3621C28.235 10.9839 28.0136 11.7458 27.6863 12.5041C27.3468 13.2908 26.8441 14.1821 26.2397 15.1051C25.1382 16.7872 23.6682 18.6213 22.1431 20.1878C23.1136 21.2829 23.569 22.5297 23.6285 23.4464C23.64 23.623 23.5778 23.7964 23.4568 23.9255C23.3358 24.0546 23.1668 24.1279 22.9898 24.1279H16.0308C16.0249 24.128 16.0191 24.128 16.0132 24.128C16.0091 24.128 16.005 24.1281 16.0009 24.1281C15.991 24.1281 15.981 24.128 15.971 24.1279H9.01176C8.83482 24.1279 8.66578 24.0546 8.54478 23.9255C8.42379 23.7964 8.36164 23.623 8.37311 23.4464C8.43264 22.5296 8.88808 21.2828 9.85864 20.1877C8.3335 18.6213 6.8635 16.7871 5.76205 15.105C5.15767 14.182 4.65501 13.2908 4.31544 12.504C3.98816 11.7458 3.76677 10.9839 3.84481 10.3621C3.95864 9.45529 4.5062 8.64914 5.24777 7.97109C5.99476 7.28808 6.99017 6.6862 8.1172 6.18736Z" fill="#1D2654"/>
<path fill-rule="evenodd" clip-rule="evenodd" d="M13.8162 5.02121C13.6378 4.89083 13.3876 4.92971 13.2572 5.10805C13.0951 5.32977 13.0047 5.67623 12.946 6.04603C12.8838 6.43708 12.8468 6.92958 12.8343 7.50192C12.8092 8.64815 12.8816 10.1477 13.0645 11.8633C13.3917 14.9323 14.0752 18.7168 15.2026 22.4422C13.0355 20.4017 11.4486 17.4407 10.4333 14.6135C9.85023 12.9896 9.46164 11.4261 9.26064 10.1335C9.05627 8.81912 9.056 7.84611 9.19778 7.36757C9.26054 7.15576 9.1397 6.93317 8.92789 6.87042C8.71607 6.80767 8.49349 6.9285 8.43074 7.14031C8.23423 7.80357 8.26418 8.93184 8.47014 10.2564C8.67948 11.6026 9.08134 13.2155 9.68042 14.8839C10.8742 18.2084 12.8749 21.8181 15.7625 23.9537C15.9028 24.0575 16.0941 24.0583 16.2353 23.9558C16.3765 23.8533 16.435 23.6711 16.3798 23.5056C15.0218 19.4314 14.2209 15.1631 13.86 11.7785C13.6795 10.0861 13.6099 8.62216 13.6341 7.51944C13.6462 6.96731 13.6816 6.51398 13.7361 6.17159C13.7938 5.80795 13.8641 5.63337 13.903 5.58019C14.0334 5.40185 13.9945 5.15159 13.8162 5.02121Z" fill="#1D2654"/>
<path fill-rule="evenodd" clip-rule="evenodd" d="M18.1848 5.02121C18.3632 4.89083 18.6134 4.92971 18.7438 5.10805C18.9059 5.32977 18.9962 5.67623 19.055 6.04603C19.1172 6.43708 19.1542 6.92958 19.1667 7.50192C19.1918 8.64815 19.1194 10.1477 18.9365 11.8633C18.6092 14.9323 17.9258 18.7168 16.7983 22.4422C18.9654 20.4017 20.5524 17.4407 21.5676 14.6135C22.1507 12.9896 22.5393 11.4261 22.7403 10.1335C22.9447 8.81912 22.945 7.84611 22.8032 7.36757C22.7404 7.15576 22.8613 6.93317 23.0731 6.87042C23.2849 6.80767 23.5075 6.9285 23.5702 7.14031C23.7667 7.80357 23.7368 8.93184 23.5308 10.2564C23.3215 11.6026 22.9196 13.2155 22.3206 14.8839C21.1267 18.2084 19.1261 21.8181 16.2385 23.9537C16.0982 24.0575 15.9068 24.0583 15.7656 23.9558C15.6244 23.8533 15.566 23.6711 15.6211 23.5056C16.9792 19.4314 17.7801 15.1631 18.141 11.7785C18.3214 10.0861 18.3911 8.62216 18.3669 7.51944C18.3548 6.96731 18.3193 6.51398 18.2649 6.17159C18.2071 5.80795 18.1369 5.63337 18.098 5.58019C17.9676 5.40185 18.0065 5.15159 18.1848 5.02121Z" fill="#1D2654"/>
<path d="M7.99366 25.1586C5.67288 25.1586 4.28042 22.701 4.04834 21.4722H27.9523C27.7203 22.701 26.3278 25.1586 24.007 25.1586C24.007 25.1586 23.0787 26.3106 19.2494 26.3106C19.2494 26.3106 18.3211 27.2322 16.0003 27.2322C13.6796 27.2322 12.7513 26.3106 12.7513 26.3106C8.92197 26.3106 7.99366 25.1586 7.99366 25.1586Z" fill="#FF6854"/>
<path fill-rule="evenodd" clip-rule="evenodd" d="M3.55545 21.0636C3.67704 20.9169 3.85767 20.832 4.04821 20.832H27.9522C28.1427 20.832 28.3234 20.9169 28.445 21.0636C28.5666 21.2103 28.6165 21.4036 28.5811 21.5908C28.4426 22.3238 27.9826 23.3478 27.2459 24.1958C26.5488 24.9982 25.5462 25.7053 24.2647 25.79C24.2391 25.8105 24.2113 25.8319 24.1812 25.854C23.9893 25.9951 23.7066 26.1646 23.3044 26.3276C22.5322 26.6405 21.3249 26.9273 19.4766 26.9491C19.4634 26.9587 19.4496 26.9685 19.4353 26.9785C19.2796 27.0876 19.0548 27.2238 18.7534 27.3568C18.1485 27.6237 17.2481 27.872 16.0002 27.872C14.7524 27.872 13.852 27.6237 13.247 27.3568C12.9457 27.2238 12.7208 27.0876 12.5651 26.9785C12.5508 26.9685 12.537 26.9587 12.5239 26.9491C10.6755 26.9273 9.46826 26.6405 8.69599 26.3276C8.29385 26.1646 8.01113 25.9951 7.81925 25.854C7.78913 25.8319 7.76132 25.8105 7.73569 25.79C6.45419 25.7053 5.4516 24.9982 4.75447 24.1958C4.01778 23.3478 3.55777 22.3238 3.41933 21.5908C3.38397 21.4036 3.43387 21.2103 3.55545 21.0636ZM8.47809 24.7403C8.47934 24.7416 8.48122 24.7435 8.48377 24.7459C8.49655 24.7582 8.52649 24.7853 8.57757 24.8228C8.67941 24.8977 8.8681 25.0162 9.1767 25.1413C9.7947 25.3917 10.8991 25.6704 12.7511 25.6704C12.9169 25.6704 13.076 25.7347 13.1952 25.8496C13.1969 25.8511 13.2011 25.8549 13.2079 25.8605C13.2239 25.874 13.2542 25.8984 13.2997 25.9303C13.3907 25.994 13.5429 26.0883 13.7637 26.1857C14.2031 26.3796 14.9273 26.592 16.0002 26.592C17.0731 26.592 17.7973 26.3796 18.2367 26.1857C18.4575 26.0883 18.6098 25.994 18.7007 25.9303C18.7462 25.8984 18.7766 25.874 18.7926 25.8605C18.7975 25.8564 18.8011 25.8533 18.8033 25.8513C18.8041 25.8506 18.8048 25.85 18.8052 25.8496C18.9244 25.7347 19.0835 25.6704 19.2493 25.6704C21.1013 25.6704 22.2057 25.3917 22.8237 25.1413C23.1323 25.0162 23.321 24.8977 23.4228 24.8228C23.4739 24.7853 23.5039 24.7582 23.5167 24.7459C23.5192 24.7435 23.5211 24.7416 23.5223 24.7403C23.6437 24.5997 23.8204 24.5184 24.0069 24.5184C24.9222 24.5184 25.6884 24.0368 26.2797 23.3563C26.6274 22.9561 26.892 22.5115 27.071 22.112H4.92944C5.10843 22.5115 5.37306 22.9561 5.72074 23.3563C6.31197 24.0368 7.07818 24.5184 7.99353 24.5184C8.17997 24.5184 8.35677 24.5997 8.47809 24.7403Z" fill="#1D2654"/>
<path d="M27.9523 21.4722C27.9523 22.347 22.6012 23.0562 16.0003 23.0562C9.39943 23.0562 4.04834 22.347 4.04834 21.4722C4.04834 20.5974 9.39943 19.8882 16.0003 19.8882C22.6012 19.8882 27.9523 20.5974 27.9523 21.4722Z" fill="#FFACA1"/>
<path fill-rule="evenodd" clip-rule="evenodd" d="M4.59524 21.7227C4.59473 21.7227 4.59791 21.7193 4.60633 21.7128C4.59996 21.7195 4.59575 21.7228 4.59524 21.7227ZM5.16028 21.472C5.16641 21.4701 5.17258 21.4682 5.17881 21.4662C5.73173 21.293 6.56467 21.128 7.63295 20.9864C9.76021 20.7045 12.7188 20.528 16.0002 20.528C19.2816 20.528 22.2402 20.7045 24.3675 20.9864C25.4357 21.128 26.2687 21.293 26.8216 21.4662C26.8278 21.4682 26.834 21.4701 26.8401 21.472C26.834 21.474 26.8278 21.4759 26.8216 21.4779C26.2687 21.6511 25.4357 21.8161 24.3675 21.9577C22.2402 22.2396 19.2816 22.416 16.0002 22.416C12.7188 22.416 9.76021 22.2396 7.63295 21.9577C6.56467 21.8161 5.73173 21.6511 5.17881 21.4779C5.17258 21.4759 5.16641 21.474 5.16028 21.472ZM27.4052 21.7227C27.4047 21.7228 27.4004 21.7195 27.3941 21.7128C27.4025 21.7193 27.4057 21.7227 27.4052 21.7227ZM27.3941 21.2313C27.4005 21.2246 27.4047 21.2213 27.4052 21.2213C27.4057 21.2214 27.4025 21.2247 27.3941 21.2313ZM4.60633 21.2313C4.59791 21.2247 4.59473 21.2214 4.59524 21.2213C4.59575 21.2213 4.59996 21.2246 4.60633 21.2313ZM7.46478 19.7175C9.66329 19.4262 12.6807 19.248 16.0002 19.248C19.3197 19.248 22.3371 19.4262 24.5356 19.7175C25.6302 19.8626 26.5476 20.039 27.2043 20.2448C27.5281 20.3462 27.8267 20.4663 28.0573 20.6156C28.254 20.743 28.5922 21.0166 28.5922 21.472C28.5922 21.9275 28.254 22.2011 28.0573 22.3285C27.8267 22.4778 27.5281 22.5979 27.2043 22.6993C26.5476 22.9051 25.6302 23.0815 24.5356 23.2266C22.3371 23.5179 19.3197 23.696 16.0002 23.696C12.6807 23.696 9.66329 23.5179 7.46478 23.2266C6.37017 23.0815 5.45278 22.9051 4.79609 22.6993C4.4723 22.5979 4.17373 22.4778 3.94312 22.3285C3.74644 22.2011 3.4082 21.9275 3.4082 21.472C3.4082 21.0166 3.74644 20.743 3.94312 20.6156C4.17373 20.4663 4.4723 20.3462 4.79609 20.2448C5.45278 20.039 6.37017 19.8626 7.46478 19.7175Z" fill="#1D2654"/>
<path d="M20.5 17.8C20.5 20.2853 18.4853 22.3 16 22.3C13.5147 22.3 11.5 20.2853 11.5 17.8C11.5 15.3148 13.5147 13.3 16 13.3C18.4853 13.3 20.5 15.3148 20.5 17.8Z" fill="white"/>
<path fill-rule="evenodd" clip-rule="evenodd" d="M16.0004 13.9402C13.8685 13.9402 12.1404 15.6683 12.1404 17.8002C12.1404 19.932 13.8685 21.6602 16.0004 21.6602C18.1322 21.6602 19.8603 19.932 19.8603 17.8002C19.8603 15.6683 18.1322 13.9402 16.0004 13.9402ZM10.8604 17.8002C10.8604 14.9614 13.1616 12.6602 16.0004 12.6602C18.8391 12.6602 21.1403 14.9614 21.1403 17.8002C21.1403 20.6389 18.8391 22.9402 16.0004 22.9402C13.1616 22.9402 10.8604 20.6389 10.8604 17.8002Z" fill="#1D2654"/>
<defs>
<linearGradient id="paint0_linear_294_5496" x1="16.0012" y1="5.19995" x2="16.0012" y2="23.4879" gradientUnits="userSpaceOnUse">
<stop stop-color="#FFACA1"/>
<stop offset="1" stop-color="#FFDEDA"/>
</linearGradient>
</defs>
</svg>
