<svg width="100" height="100" viewBox="0 0 100 100" fill="none" xmlns="http://www.w3.org/2000/svg">
<path d="M100 50C100 77.6142 77.6142 100 50 100C22.3858 100 0 77.6142 0 50C0 22.3858 22.3858 0 50 0C77.6142 0 100 22.3858 100 50Z" fill="#F7F9FB"/>
<path fill-rule="evenodd" clip-rule="evenodd" d="M50 96.6667C75.7733 96.6667 96.6667 75.7733 96.6667 50C96.6667 24.2267 75.7733 3.33333 50 3.33333C24.2267 3.33333 3.33333 24.2267 3.33333 50C3.33333 75.7733 24.2267 96.6667 50 96.6667ZM50 100C77.6142 100 100 77.6142 100 50C100 22.3858 77.6142 0 50 0C22.3858 0 0 22.3858 0 50C0 77.6142 22.3858 100 50 100Z" fill="#C7D6E4"/>
<path fill-rule="evenodd" clip-rule="evenodd" d="M50.0014 16.25C33.3705 16.25 15.0946 23.8943 13.9981 32.6306C13.3066 38.1395 23.2976 52.9119 33.6149 63.0746C29.9385 66.4713 28.3392 70.6456 28.1604 73.3995H49.9204C49.9475 73.3998 49.9745 73.4 50.0014 73.4C50.0284 73.4 50.0554 73.3998 50.0824 73.3995H71.8419C71.6631 70.6457 70.0639 66.4715 66.3877 63.0748C76.705 52.9121 86.6962 38.1395 86.0048 32.6306C84.9082 23.8943 66.6324 16.25 50.0014 16.25Z" fill="url(#paint0_linear_199:1235)"/>
<path d="M13.9981 32.6306L12.0137 32.3815L13.9981 32.6306ZM33.6149 63.0746L34.9721 64.5435C35.3737 64.1725 35.6059 63.6532 35.6146 63.1065C35.6234 62.5598 35.4079 62.0334 35.0184 61.6497L33.6149 63.0746ZM28.1604 73.3995L26.1646 73.2699C26.1288 73.8216 26.323 74.3636 26.7011 74.7671C27.0792 75.1705 27.6074 75.3995 28.1604 75.3995V73.3995ZM49.9204 73.3995L49.9472 71.3996C49.9383 71.3995 49.9293 71.3995 49.9204 71.3995V73.3995ZM50.0824 73.3995V71.3995C50.0735 71.3995 50.0646 71.3995 50.0557 71.3996L50.0824 73.3995ZM71.8419 73.3995V75.3995C72.3948 75.3995 72.9231 75.1705 73.3012 74.7671C73.6793 74.3636 73.8735 73.8216 73.8377 73.2699L71.8419 73.3995ZM66.3877 63.0748L64.9842 61.65C64.5947 62.0337 64.3792 62.5601 64.388 63.1068C64.3967 63.6535 64.6289 64.1727 65.0304 64.5438L66.3877 63.0748ZM86.0048 32.6306L84.0203 32.8797V32.8797L86.0048 32.6306ZM15.9825 32.8797C16.1751 31.3454 17.1597 29.633 19.0971 27.8615C21.0176 26.1055 23.7209 24.4373 26.9838 22.993C33.5096 20.1046 41.9601 18.25 50.0014 18.25V14.25C41.4117 14.25 32.4089 16.2175 25.3649 19.3353C21.8429 20.8942 18.7323 22.7751 16.3979 24.9095C14.0805 27.0284 12.3694 29.5476 12.0137 32.3815L15.9825 32.8797ZM35.0184 61.6497C29.9607 56.6679 24.9742 50.5444 21.3514 45.0118C19.5391 42.2441 18.097 39.668 17.1569 37.4899C16.1784 35.2227 15.8807 33.6911 15.9825 32.8797L12.0137 32.3815C11.7698 34.3245 12.4616 36.7053 13.4844 39.0749C14.5455 41.5335 16.1163 44.3187 18.005 47.203C21.7842 52.9745 26.9518 59.3186 32.2114 64.4994L35.0184 61.6497ZM32.2576 61.6056C28.2214 65.3348 26.3781 69.9818 26.1646 73.2699L30.1562 73.5291C30.3003 71.3095 31.6556 67.6077 34.9721 64.5435L32.2576 61.6056ZM28.1604 75.3995H49.9204V71.3995H28.1604V75.3995ZM50.0014 71.4C49.9834 71.4 49.9653 71.3999 49.9472 71.3996L49.8937 75.3993C49.9297 75.3998 49.9656 75.4 50.0014 75.4V71.4ZM50.0557 71.3996C50.0376 71.3999 50.0195 71.4 50.0014 71.4V75.4C50.0372 75.4 50.0732 75.3998 50.1092 75.3993L50.0557 71.3996ZM50.0824 75.3995H71.8419V71.3995H50.0824V75.3995ZM73.8377 73.2699C73.6242 69.9818 71.781 65.335 67.745 61.6059L65.0304 64.5438C68.3467 67.6079 69.702 71.3095 69.8461 73.5291L73.8377 73.2699ZM84.0203 32.8797C84.1222 33.6911 83.8244 35.2227 82.8459 37.4899C81.9058 39.6681 80.4637 42.2442 78.6513 45.0119C75.0285 50.5446 70.0419 56.6681 64.9842 61.65L67.7912 64.4997C73.0509 59.3189 78.2185 52.9747 81.9977 47.2032C83.8864 44.3188 85.4573 41.5336 86.5185 39.075C87.5412 36.7053 88.2331 34.3245 87.9892 32.3815L84.0203 32.8797ZM50.0014 18.25C58.0427 18.25 66.4933 20.1046 73.019 22.993C76.282 24.4373 78.9853 26.1055 80.9058 27.8615C82.8432 29.633 83.8278 31.3454 84.0203 32.8797L87.9892 32.3815C87.6335 29.5476 85.9224 27.0284 83.605 24.9095C81.2706 22.7751 78.16 20.8942 74.638 19.3353C67.594 16.2175 58.5911 14.25 50.0014 14.25V18.25Z" fill="#1D2654"/>
<path d="M42.4366 16.7004C39.9245 20.1367 41.4457 48.1875 50 73.8504C32.5274 60.928 25.4291 29.8049 27.5434 22.6686" stroke="#1D2654" stroke-width="2.5" stroke-linecap="round" stroke-linejoin="round"/>
<path d="M57.5634 16.7004C60.0755 20.1367 58.5543 48.1875 50 73.8504C67.4726 60.928 74.5709 29.8049 72.4566 22.6686" stroke="#1D2654" stroke-width="2.5" stroke-linecap="round" stroke-linejoin="round"/>
<path d="M24.9796 78.6201C17.7272 78.6201 13.3757 70.9401 12.6505 67.1001H87.3505C86.6252 70.9401 82.2738 78.6201 75.0213 78.6201C75.0213 78.6201 72.1204 82.2201 60.1539 82.2201C60.1539 82.2201 57.2529 85.1001 50.0005 85.1001C42.748 85.1001 39.8471 82.2201 39.8471 82.2201C27.8806 82.2201 24.9796 78.6201 24.9796 78.6201Z" fill="#FF6854" stroke="#1D2654" stroke-width="4" stroke-linecap="round" stroke-linejoin="round"/>
<ellipse cx="50.0005" cy="67.1001" rx="37.35" ry="4.95" fill="#FFACA1" stroke="#1D2654" stroke-width="4"/>
<circle cx="50" cy="55.625" r="14.0625" fill="white" stroke="#1D2654" stroke-width="4"/>
<defs>
<linearGradient id="paint0_linear_199:1235" x1="50.0014" y1="16.25" x2="50.0014" y2="73.4" gradientUnits="userSpaceOnUse">
<stop stop-color="#FFACA1"/>
<stop offset="1" stop-color="#FFDEDA"/>
</linearGradient>
</defs>
</svg>
