<svg width="32" height="32" viewBox="0 0 32 32" fill="none" xmlns="http://www.w3.org/2000/svg">
<mask id="mask0_1003_5810" style="mask-type:alpha" maskUnits="userSpaceOnUse" x="0" y="0" width="32" height="32">
<circle cx="16" cy="16" r="16" fill="white"/>
</mask>
<g mask="url(#mask0_1003_5810)">
<circle cx="16" cy="16" r="15.5" fill="white" stroke="#CCD4E0"/>
</g>
<g clip-path="url(#clip0_1003_5810)">
<path d="M4.02258 9.32319L8.01774 7.01733L19.9876 13.927L19.9879 13.9401C19.6748 14.1008 19.3768 14.2899 19.0698 14.4614L16.0026 16.2315C15.9761 16.2223 15.9499 16.2124 15.9241 16.2016L4.52611 9.62176C4.35727 9.52926 4.19526 9.4239 4.02148 9.34044L4.02258 9.32319ZM19.9904 9.32101L23.9833 7.01733L27.975 9.32128L27.9785 9.33633L23.9817 11.634L20.9025 9.85875C20.6006 9.67567 20.2846 9.51612 19.9904 9.32101Z" fill="#2B6DEF"/>
<path d="M19.9875 13.927L19.9903 9.32104C20.2845 9.51616 20.6005 9.67571 20.9024 9.85879L23.9816 11.634L23.9838 24.6509C23.9802 24.9191 23.9917 25.1879 23.975 25.4555L19.9897 23.1568L19.9884 18.5505L19.9878 13.9402L19.9875 13.927ZM4.02139 9.34047C4.19516 9.42394 4.35717 9.5293 4.52602 9.6218L15.924 16.2017C15.9498 16.2124 15.976 16.2224 16.0025 16.2315C15.985 16.3648 15.9943 16.4994 15.9927 16.6335L15.9921 20.8509L12.0125 18.5486C11.81 18.4115 11.5897 18.3026 11.3809 18.1753L8.16816 16.3207C8.12109 16.2928 8.07211 16.269 8.02175 16.2479C8.01713 16.285 8.01376 16.3223 8.01163 16.3596L8.013 24.2949C8.01765 24.6816 7.99959 25.0696 8.02531 25.4555L8.02011 25.4722H8.00916C8.00807 25.4678 8.00561 25.4593 8.00451 25.455L4.02002 23.1537L4.02139 9.34047Z" fill="#2891F9"/>
<path d="M23.9817 11.6338L27.9785 9.33618L27.9802 23.1536L23.9957 25.4545L23.9913 25.472H23.9806L23.9751 25.4553C23.9918 25.1877 23.9803 24.9189 23.9839 24.6507L23.9817 11.6338ZM19.0698 14.4613C19.3768 14.2897 19.6748 14.1006 19.9879 13.94L19.9885 18.5503L16.9829 20.285L15.9922 20.8507L15.9928 16.6333C15.9944 16.4992 15.9851 16.3646 16.0026 16.2313L19.0698 14.4613ZM8.02186 16.2477C8.07222 16.2688 8.1212 16.2926 8.16827 16.3205L11.381 18.1751C11.5898 18.3024 11.8101 18.4113 12.0126 18.5484L12.0102 23.1571L8.02542 25.4553C7.9997 25.0695 8.01776 24.6814 8.01311 24.2947L8.01174 16.3594C8.01387 16.3221 8.01724 16.2848 8.02186 16.2477Z" fill="#2BBDF7"/>
</g>
<defs>
<clipPath id="clip0_1003_5810">
<rect width="24" height="18.4721" fill="white" transform="translate(4 7)"/>
</clipPath>
</defs>
</svg>
