<svg width="32" height="32" viewBox="0 0 32 32" fill="none" xmlns="http://www.w3.org/2000/svg">
<path d="M26.4979 6.35637C24.5671 5.47044 22.4966 4.81773 20.3318 4.44389C20.2923 4.43668 20.253 4.45471 20.2326 4.49077C19.9664 4.96437 19.6714 5.58223 19.4649 6.06786C17.1364 5.71927 14.82 5.71927 12.5393 6.06786C12.3327 5.57143 12.0271 4.96437 11.7596 4.49077C11.7393 4.45591 11.6999 4.43788 11.6605 4.44389C9.49686 4.81653 7.42637 5.46925 5.49438 6.35637C5.47766 6.36358 5.46332 6.37561 5.4538 6.39123C1.52653 12.2585 0.450685 17.9815 0.978459 23.6336C0.980847 23.6613 0.996369 23.6877 1.01786 23.7046C3.60897 25.6074 6.11889 26.7626 8.58221 27.5283C8.62163 27.5403 8.6634 27.5259 8.68849 27.4934C9.27119 26.6977 9.79062 25.8587 10.236 24.9763C10.2623 24.9246 10.2372 24.8633 10.1834 24.8429C9.35955 24.5304 8.57504 24.1493 7.8204 23.7166C7.76071 23.6817 7.75593 23.5963 7.81084 23.5555C7.96965 23.4365 8.12849 23.3127 8.28013 23.1876C8.30757 23.1648 8.34579 23.16 8.37805 23.1744C13.3357 25.4379 18.703 25.4379 23.6022 23.1744C23.6345 23.1588 23.6727 23.1636 23.7014 23.1865C23.853 23.3115 24.0118 23.4365 24.1718 23.5555C24.2268 23.5963 24.2232 23.6817 24.1635 23.7166C23.4088 24.1577 22.6243 24.5304 21.7992 24.8417C21.7455 24.8621 21.7216 24.9246 21.7479 24.9763C22.2028 25.8574 22.7222 26.6965 23.2942 27.4922C23.3181 27.5259 23.361 27.5403 23.4005 27.5283C25.8757 26.7626 28.3856 25.6074 30.9767 23.7046C30.9994 23.6877 31.0138 23.6625 31.0162 23.6348C31.6478 17.1004 29.9582 11.4243 26.5372 6.39243C26.5289 6.37561 26.5146 6.36358 26.4979 6.35637ZM10.9763 20.1921C9.48372 20.1921 8.25385 18.8218 8.25385 17.1389C8.25385 15.456 9.45986 14.0857 10.9763 14.0857C12.5047 14.0857 13.7226 15.468 13.6988 17.1389C13.6988 18.8218 12.4927 20.1921 10.9763 20.1921ZM21.0422 20.1921C19.5496 20.1921 18.3198 18.8218 18.3198 17.1389C18.3198 15.456 19.5257 14.0857 21.0422 14.0857C22.5706 14.0857 23.7885 15.468 23.7647 17.1389C23.7647 18.8218 22.5706 20.1921 21.0422 20.1921Z" fill="#8193B5"/>
</svg>
