<svg width="32" height="32" viewBox="0 0 32 32" fill="none" xmlns="http://www.w3.org/2000/svg">
<g clip-path="url(#clip0_142:759)">
<path fill-rule="evenodd" clip-rule="evenodd" d="M15.9999 0.727272C12.1978 0.723407 8.51845 2.0737 5.62139 4.53617C2.72433 6.99863 0.798873 10.4123 0.190095 14.1655C-0.418683 17.9186 0.329009 21.7659 2.29916 25.0178C4.26931 28.2698 7.33316 30.7139 10.9416 31.912C11.7372 32.0594 12.0319 31.5584 12.0319 31.1361C12.0319 30.7138 12.0319 29.7512 12.0319 28.4154C7.58252 29.3976 6.6396 26.2742 6.6396 26.2742C6.34313 25.3062 5.71328 24.4745 4.86183 23.9268C3.418 22.9446 4.97969 22.9446 4.97969 22.9446C5.48581 23.0161 5.96903 23.2018 6.39275 23.4877C6.81647 23.7736 7.1696 24.1521 7.42536 24.5947C7.64269 24.9887 7.93567 25.336 8.28753 25.6165C8.63939 25.8971 9.04319 26.1054 9.47574 26.2295C9.9083 26.3536 10.3611 26.3911 10.8082 26.3398C11.2552 26.2884 11.6878 26.1494 12.081 25.9305C12.1426 25.1225 12.491 24.3631 13.0632 23.7893C9.50761 23.3866 5.77527 22.0115 5.77527 15.8826C5.75085 14.2943 6.33814 12.7576 7.41553 11.5904C6.93472 10.2096 6.99082 8.69845 7.57269 7.35711C7.57269 7.35711 8.91829 6.92494 11.9729 8.99737C14.596 8.27719 17.3646 8.27719 19.9877 8.99737C23.0423 6.92494 24.3781 7.35711 24.3781 7.35711C24.966 8.69655 25.0257 10.2088 24.5451 11.5904C25.6225 12.7576 26.2097 14.2943 26.1853 15.8826C26.1853 22.0311 22.4432 23.3767 18.8778 23.7402C19.2601 24.1245 19.5553 24.5865 19.7434 25.0949C19.9315 25.6033 20.0081 26.1462 19.968 26.6867C19.968 28.8279 19.968 30.5566 19.968 31.0772C19.968 31.5977 20.2529 32.0004 21.0681 31.8531C24.6652 30.6436 27.7157 28.1957 29.6755 24.9459C31.6353 21.6961 32.377 17.8558 31.7682 14.1099C31.1594 10.3641 29.2398 6.95624 26.3517 4.49431C23.4637 2.03239 19.7949 0.676446 15.9999 0.668335V0.727272Z" fill="#8193B5"/>
</g>
<defs>
<clipPath id="clip0_142:759">
<rect width="32" height="32" fill="white"/>
</clipPath>
</defs>
</svg>
