<svg width="32" height="32" viewBox="0 0 32 32" fill="none" xmlns="http://www.w3.org/2000/svg">
<g clip-path="url(#clip0_142:720)">
<path d="M32 6.07598C30.8227 6.59865 29.5573 6.95065 28.2293 7.10931C29.5853 6.29731 30.6267 5.01065 31.116 3.47731C29.848 4.22931 28.4427 4.77598 26.9467 5.07065C25.7507 3.79465 24.0427 2.99731 22.1547 2.99731C17.916 2.99731 14.8013 6.95198 15.7587 11.0573C10.304 10.784 5.46667 8.17065 2.228 4.19865C0.508 7.14931 1.336 11.0093 4.25867 12.964C3.184 12.9293 2.17067 12.6346 1.28667 12.1426C1.21467 15.184 3.39467 18.0293 6.552 18.6626C5.628 18.9133 4.616 18.972 3.58667 18.7746C4.42133 21.3826 6.84533 23.28 9.72 23.3333C6.96 25.4973 3.48267 26.464 0 26.0533C2.90533 27.916 6.35733 29.0026 10.064 29.0026C22.2533 29.0026 29.14 18.708 28.724 9.47465C30.0067 8.54798 31.12 7.39198 32 6.07598Z" fill="#8193B5"/>
</g>
<defs>
<clipPath id="clip0_142:720">
<rect width="32" height="32" fill="white"/>
</clipPath>
</defs>
</svg>
