<svg width="24" height="24" viewBox="0 0 24 24" fill="none" xmlns="http://www.w3.org/2000/svg">
<path d="M16.71 1.62012H7.28998C5.59999 1.62012 4.22998 2.99013 4.22998 4.68012V19.3201C4.22998 21.0101 5.59999 22.3801 7.28998 22.3801H16.71C18.4 22.3801 19.77 21.0101 19.77 19.3201V4.68012C19.77 2.99013 18.4 1.62012 16.71 1.62012Z" stroke="#1D2654" stroke-width="1.5" stroke-linecap="round" stroke-linejoin="round"/>
<path d="M15.3302 4.6875H8.67769C7.65459 4.6875 6.8252 5.51521 6.8252 6.53625C6.8252 7.55729 7.65459 8.385 8.67769 8.385H15.3302C16.3533 8.385 17.1827 7.55729 17.1827 6.53625C17.1827 5.51521 16.3533 4.6875 15.3302 4.6875Z" stroke="#1D2654" stroke-miterlimit="10"/>
<path d="M9.15 10.7852H9.1425C8.23537 10.7852 7.5 11.5205 7.5 12.4277C7.5 13.3348 8.23537 14.0702 9.1425 14.0702H9.15C10.0571 14.0702 10.7925 13.3348 10.7925 12.4277C10.7925 11.5205 10.0571 10.7852 9.15 10.7852Z" stroke="#1D2654" stroke-miterlimit="10"/>
<path d="M14.8648 10.7852H14.8573C13.9502 10.7852 13.2148 11.5205 13.2148 12.4277C13.2148 13.3348 13.9502 14.0702 14.8573 14.0702H14.8648C15.772 14.0702 16.5073 13.3348 16.5073 12.4277C16.5073 11.5205 15.772 10.7852 14.8648 10.7852Z" stroke="#1D2654" stroke-miterlimit="10"/>
<path d="M9.15 16.0273H9.1425C8.23537 16.0273 7.5 16.7627 7.5 17.6698C7.5 18.577 8.23537 19.3123 9.1425 19.3123H9.15C10.0571 19.3123 10.7925 18.577 10.7925 17.6698C10.7925 16.7627 10.0571 16.0273 9.15 16.0273Z" stroke="#1D2654" stroke-miterlimit="10"/>
<path d="M14.8648 16.0273H14.8573C13.9502 16.0273 13.2148 16.7627 13.2148 17.6698C13.2148 18.577 13.9502 19.3123 14.8573 19.3123H14.8648C15.772 19.3123 16.5073 18.577 16.5073 17.6698C16.5073 16.7627 15.772 16.0273 14.8648 16.0273Z" stroke="#1D2654" stroke-miterlimit="10"/>
</svg>
