<svg width="598" height="600" viewBox="0 0 598 600" fill="none" xmlns="http://www.w3.org/2000/svg">
<path d="M299 0L310.978 186.038L361.374 6.55573L334.41 191.019L421.021 25.9364L356.295 200.762L475.336 57.2949L375.676 214.843L521.943 99.2608L391.705 232.646L558.808 150L403.683 253.392L584.317 207.295L411.086 276.175L597.357 268.641L413.59 300L597.357 331.359L411.086 323.825L584.317 392.705L403.683 346.608L558.808 450L391.705 367.354L521.943 500.739L375.676 385.157L475.336 542.705L356.295 399.238L421.021 574.064L334.41 408.981L361.374 593.444L310.978 413.962L299 600L287.022 413.962L236.626 593.444L263.59 408.981L176.979 574.064L241.705 399.238L122.664 542.705L222.324 385.157L76.0565 500.739L206.295 367.354L39.1924 450L194.317 346.608L13.683 392.705L186.914 323.825L0.643433 331.359L184.41 300L0.643433 268.641L186.914 276.175L13.683 207.295L194.317 253.392L39.1924 150L206.295 232.646L76.0565 99.2608L222.324 214.843L122.664 57.2949L241.705 200.762L176.979 25.9364L263.59 191.019L236.626 6.55573L287.022 186.038L299 0Z" fill="url(#paint0_radial_1251_17021)"/>
<defs>
<radialGradient id="paint0_radial_1251_17021" cx="0" cy="0" r="1" gradientUnits="userSpaceOnUse" gradientTransform="translate(299 300) rotate(90) scale(300)">
<stop stop-color="white" stop-opacity="0.3"/>
<stop offset="1" stop-color="white" stop-opacity="0"/>
</radialGradient>
</defs>
</svg>
