<svg width="38" height="30" viewBox="0 0 38 30" fill="none" xmlns="http://www.w3.org/2000/svg">
<path fill-rule="evenodd" clip-rule="evenodd" d="M18.5962 1.22839C10.5808 1.22839 1.77264 4.9126 1.24415 9.12313C0.910892 11.7782 5.72626 18.898 10.6988 23.796C8.9269 25.4331 8.15609 27.445 8.0699 28.7722H18.5962H29.1225C29.0363 27.445 28.2655 25.4331 26.4936 23.796C31.4662 18.898 36.2815 11.7782 35.9483 9.12313C35.4198 4.9126 26.6116 1.22839 18.5962 1.22839Z" fill="#FF6854"/>
<path fill-rule="evenodd" clip-rule="evenodd" d="M3.87993 7.01926C2.97127 7.85009 2.54473 8.62214 2.46269 9.27575C2.42298 9.59213 2.54046 10.2742 3.00915 11.3601C3.45426 12.3914 4.14081 13.6192 5.00924 14.9454C6.74497 17.5962 9.13637 20.5329 11.5606 22.9208C11.7998 23.1564 11.9321 23.4796 11.9267 23.8153C11.9214 24.151 11.7788 24.4699 11.5322 24.6977C10.5377 25.6166 9.92555 26.6542 9.59723 27.5439H27.5953C27.267 26.6542 26.6548 25.6166 25.6603 24.6977C25.4137 24.4699 25.2711 24.151 25.2658 23.8153C25.2604 23.4796 25.3927 23.1564 25.6319 22.9208C28.0561 20.5329 30.4475 17.5962 32.1833 14.9454C33.0517 13.6192 33.7382 12.3914 34.1834 11.3601C34.6521 10.2742 34.7695 9.59213 34.7298 9.27575C34.6478 8.62214 34.2212 7.85009 33.3126 7.01926C32.4143 6.19794 31.1383 5.40796 29.5828 4.71948C26.4719 3.34253 22.4356 2.45614 18.5963 2.45614C14.7569 2.45614 10.7206 3.34253 7.60967 4.71948C6.05418 5.40796 4.77819 6.19794 3.87993 7.01926ZM6.61557 2.47351C10.0447 0.955712 14.4202 0 18.5963 0C22.7723 0 27.1478 0.955712 30.5769 2.47351C32.2915 3.23239 33.8176 4.15293 34.97 5.20661C36.112 6.25079 36.9846 7.51822 37.1668 8.96986C37.2937 9.98103 36.9343 11.1846 36.4384 12.3334C35.919 13.5369 35.1534 14.8931 34.2381 16.2909C32.6105 18.7766 30.4533 21.4791 28.205 23.8115C29.5946 25.4574 30.2578 27.3028 30.3481 28.6924C30.3701 29.0312 30.2508 29.364 30.0186 29.6117C29.7865 29.8594 29.4621 30 29.1226 30H8.06994C7.73041 30 7.40604 29.8594 7.17387 29.6117C6.9417 29.364 6.82245 29.0312 6.84445 28.6924C6.93468 27.3028 7.59794 25.4574 8.9875 23.8115C6.73921 21.4791 4.58203 18.7766 2.95443 16.2909C2.03911 14.8931 1.27352 13.5369 0.754086 12.3334C0.258234 11.1846 -0.101242 9.98103 0.025676 8.96986C0.207881 7.51822 1.08055 6.25079 2.22254 5.20661C3.37493 4.15293 4.90103 3.23239 6.61557 2.47351Z" fill="#FF6854"/>
</svg>
