<svg width="32" height="32" viewBox="0 0 32 32" fill="none" xmlns="http://www.w3.org/2000/svg">
<path d="M26.4979 6.35643C24.5671 5.4705 22.4966 4.81779 20.3318 4.44395C20.2924 4.43674 20.253 4.45477 20.2327 4.49083C19.9664 4.96443 19.6715 5.58229 19.4649 6.06792C17.1365 5.71933 14.8201 5.71933 12.5394 6.06792C12.3328 5.57149 12.0271 4.96443 11.7597 4.49083C11.7393 4.45597 11.7 4.43794 11.6605 4.44395C9.49692 4.81659 7.42643 5.46931 5.49444 6.35643C5.47772 6.36364 5.46338 6.37568 5.45387 6.39129C1.52659 12.2586 0.450746 17.9816 0.97852 23.6337C0.980908 23.6613 0.99643 23.6878 1.01792 23.7046C3.60903 25.6075 6.11895 26.7627 8.58227 27.5284C8.6217 27.5404 8.66347 27.526 8.68855 27.4935C9.27125 26.6978 9.79068 25.8587 10.236 24.9764C10.2623 24.9247 10.2372 24.8634 10.1835 24.843C9.35962 24.5304 8.5751 24.1494 7.82046 23.7166C7.76077 23.6818 7.75599 23.5964 7.8109 23.5555C7.96971 23.4365 8.12855 23.3127 8.28019 23.1877C8.30763 23.1649 8.34586 23.1601 8.37811 23.1745C13.3358 25.438 18.7031 25.438 23.6023 23.1745C23.6346 23.1589 23.6728 23.1637 23.7014 23.1865C23.8531 23.3115 24.0119 23.4365 24.1719 23.5555C24.2268 23.5964 24.2232 23.6818 24.1635 23.7166C23.4089 24.1578 22.6244 24.5304 21.7993 24.8418C21.7456 24.8622 21.7217 24.9247 21.748 24.9764C22.2029 25.8575 22.7223 26.6965 23.2943 27.4923C23.3181 27.526 23.3611 27.5404 23.4005 27.5284C25.8758 26.7627 28.3857 25.6075 30.9768 23.7046C30.9995 23.6878 31.0138 23.6625 31.0162 23.6349C31.6479 17.1005 29.9583 11.4243 26.5373 6.39249C26.5289 6.37568 26.5146 6.36364 26.4979 6.35643ZM10.9764 20.1922C9.48378 20.1922 8.25391 18.8218 8.25391 17.1389C8.25391 15.456 9.45992 14.0857 10.9764 14.0857C12.5047 14.0857 13.7227 15.4681 13.6988 17.1389C13.6988 18.8218 12.4928 20.1922 10.9764 20.1922ZM21.0423 20.1922C19.5497 20.1922 18.3198 18.8218 18.3198 17.1389C18.3198 15.456 19.5258 14.0857 21.0423 14.0857C22.5707 14.0857 23.7886 15.4681 23.7647 17.1389C23.7647 18.8218 22.5707 20.1922 21.0423 20.1922Z" fill="#8192B4"/>
</svg>
