<svg width="32" height="32" viewBox="0 0 32 32" fill="none" xmlns="http://www.w3.org/2000/svg">
<g clip-path="url(#clip0_880_4767)">
<path fill-rule="evenodd" clip-rule="evenodd" d="M16 0.727394C12.1978 0.72353 8.51851 2.07382 5.62145 4.53629C2.72439 6.99876 0.798934 10.4124 0.190156 14.1656C-0.418622 17.9187 0.32907 21.766 2.29922 25.018C4.26938 28.2699 7.33322 30.714 10.9417 31.9122C11.7373 32.0595 12.0319 31.5586 12.0319 31.1362C12.0319 30.7139 12.0319 29.7513 12.0319 28.4155C7.58258 29.3977 6.63967 26.2743 6.63967 26.2743C6.34319 25.3063 5.71334 24.4746 4.86189 23.9269C3.41806 22.9447 4.97975 22.9447 4.97975 22.9447C5.48587 23.0162 5.96909 23.2019 6.39281 23.4878C6.81653 23.7737 7.16966 24.1522 7.42543 24.5948C7.64275 24.9889 7.93573 25.3361 8.28759 25.6167C8.63945 25.8972 9.04325 26.1055 9.4758 26.2296C9.90836 26.3537 10.3612 26.3912 10.8082 26.3399C11.2553 26.2886 11.6878 26.1495 12.081 25.9306C12.1427 25.1226 12.491 24.3632 13.0632 23.7894C9.50768 23.3867 5.77533 22.0116 5.77533 15.8827C5.75091 14.2945 6.3382 12.7577 7.41559 11.5905C6.93478 10.2097 6.99088 8.69858 7.57275 7.35723C7.57275 7.35723 8.91836 6.92506 11.973 8.9975C14.596 8.27731 17.3647 8.27731 19.9877 8.9975C23.0424 6.92506 24.3782 7.35723 24.3782 7.35723C24.9661 8.69667 25.0258 10.2089 24.5451 11.5905C25.6225 12.7577 26.2098 14.2945 26.1854 15.8827C26.1854 22.0313 22.4432 23.3769 18.8778 23.7403C19.2601 24.1246 19.5554 24.5866 19.7435 25.095C19.9316 25.6034 20.0082 26.1463 19.9681 26.6869C19.9681 28.8281 19.9681 30.5567 19.9681 31.0773C19.9681 31.5979 20.2529 32.0006 21.0682 31.8532C24.6653 30.6438 27.7158 28.1958 29.6756 24.946C31.6354 21.6962 32.3771 17.8559 31.7683 14.11C31.1595 10.3642 29.2399 6.95636 26.3518 4.49444C23.4637 2.03251 19.795 0.676568 16 0.668457V0.727394Z" fill="#8192B4"/>
</g>
<defs>
<clipPath id="clip0_880_4767">
<rect width="32" height="32" fill="white"/>
</clipPath>
</defs>
</svg>
