<svg width="32" height="32" viewBox="0 0 32 32" fill="none" xmlns="http://www.w3.org/2000/svg">
<path d="M18.0502 16.0871C18.0502 21.1057 14.0095 25.174 9.02524 25.174C4.04103 25.174 0 21.1057 0 16.0871C0 11.0686 4.04072 7 9.02524 7C14.0098 7 18.0502 11.0686 18.0502 16.0871Z" fill="#8192B4"/>
<path d="M27.9502 16.087C27.9502 20.8109 25.9298 24.6418 23.4375 24.6418C20.9453 24.6418 18.9249 20.8109 18.9249 16.087C18.9249 11.3632 20.945 7.53223 23.4372 7.53223C25.9295 7.53223 27.9499 11.362 27.9499 16.087" fill="#8192B4"/>
<path d="M32 16.0867C32 20.3181 31.2896 23.7505 30.4129 23.7505C29.5363 23.7505 28.8261 20.319 28.8261 16.0867C28.8261 11.8543 29.5366 8.42285 30.4129 8.42285C31.2893 8.42285 32 11.854 32 16.0867Z" fill="#8192B4"/>
</svg>
