<svg width="32" height="32" viewBox="0 0 32 32" fill="none" xmlns="http://www.w3.org/2000/svg">
<g clip-path="url(#clip0_880_4766)">
<path d="M32 6.07623C30.8227 6.59889 29.5573 6.95089 28.2293 7.10956C29.5853 6.29756 30.6267 5.01089 31.116 3.47756C29.848 4.22956 28.4427 4.77623 26.9467 5.07089C25.7507 3.79489 24.0427 2.99756 22.1547 2.99756C17.916 2.99756 14.8013 6.95223 15.7587 11.0576C10.304 10.7842 5.46667 8.17089 2.228 4.19889C0.508 7.14956 1.336 11.0096 4.25867 12.9642C3.184 12.9296 2.17067 12.6349 1.28667 12.1429C1.21467 15.1842 3.39467 18.0296 6.552 18.6629C5.628 18.9136 4.616 18.9722 3.58667 18.7749C4.42133 21.3829 6.84533 23.2802 9.72 23.3336C6.96 25.4976 3.48267 26.4642 0 26.0536C2.90533 27.9162 6.35733 29.0029 10.064 29.0029C22.2533 29.0029 29.14 18.7082 28.724 9.47489C30.0067 8.54822 31.12 7.39223 32 6.07623Z" fill="#8192B4"/>
</g>
<defs>
<clipPath id="clip0_880_4766">
<rect width="32" height="32" fill="white"/>
</clipPath>
</defs>
</svg>
