<svg width="44" height="44" viewBox="0 0 44 44" fill="none" xmlns="http://www.w3.org/2000/svg">
<path fill-rule="evenodd" clip-rule="evenodd" d="M33 42.625H11C7.96243 42.625 5.5 40.1626 5.5 37.125V6.875C5.5 3.83743 7.96243 1.375 11 1.375H28.3055C28.6701 1.375 29.0199 1.51987 29.2777 1.77773L38.0973 10.5973C38.3551 10.8551 38.5 11.2049 38.5 11.5695V37.125C38.5 40.1626 36.0376 42.625 33 42.625ZM35.75 12.375L28.875 12.375C28.1156 12.375 27.5 11.7594 27.5 11V4.125L35.75 12.375ZM12.375 20.625C12.375 19.8656 12.9906 19.25 13.75 19.25H30.25C31.0094 19.25 31.625 19.8656 31.625 20.625C31.625 21.3844 31.0094 22 30.25 22H13.75C12.9906 22 12.375 21.3844 12.375 20.625ZM13.75 27.5C12.9906 27.5 12.375 28.1156 12.375 28.875C12.375 29.6344 12.9906 30.25 13.75 30.25H30.25C31.0094 30.25 31.625 29.6344 31.625 28.875C31.625 28.1156 31.0094 27.5 30.25 27.5H13.75Z" fill="#3B4BD8"/>
</svg>
