<svg width="32" height="32" viewBox="0 0 32 32" fill="none" xmlns="http://www.w3.org/2000/svg">
<g clip-path="url(#clip0_69:301)">
<path fill-rule="evenodd" clip-rule="evenodd" d="M16 0.727272C12.1978 0.723407 8.51852 2.0737 5.62146 4.53617C2.7244 6.99863 0.798942 10.4123 0.190164 14.1655C-0.418614 17.9186 0.329077 21.7659 2.29923 25.0178C4.26938 28.2698 7.33323 30.7139 10.9417 31.912C11.7373 32.0594 12.0319 31.5584 12.0319 31.1361C12.0319 30.7138 12.0319 29.7512 12.0319 28.4154C7.58259 29.3976 6.63967 26.2742 6.63967 26.2742C6.34319 25.3062 5.71334 24.4745 4.8619 23.9268C3.41807 22.9446 4.97976 22.9446 4.97976 22.9446C5.48588 23.0161 5.9691 23.2018 6.39282 23.4877C6.81654 23.7736 7.16967 24.1521 7.42543 24.5947C7.64276 24.9887 7.93574 25.336 8.2876 25.6165C8.63946 25.8971 9.04325 26.1054 9.47581 26.2295C9.90837 26.3536 10.3612 26.3911 10.8082 26.3398C11.2553 26.2884 11.6879 26.1494 12.081 25.9305C12.1427 25.1225 12.491 24.3631 13.0632 23.7893C9.50768 23.3866 5.77533 22.0115 5.77533 15.8826C5.75092 14.2943 6.33821 12.7576 7.4156 11.5904C6.93479 10.2096 6.99089 8.69845 7.57276 7.35711C7.57276 7.35711 8.91836 6.92494 11.973 8.99737C14.596 8.27719 17.3647 8.27719 19.9877 8.99737C23.0424 6.92494 24.3782 7.35711 24.3782 7.35711C24.9661 8.69655 25.0258 10.2088 24.5451 11.5904C25.6225 12.7576 26.2098 14.2943 26.1854 15.8826C26.1854 22.0311 22.4432 23.3767 18.8778 23.7402C19.2602 24.1245 19.5554 24.5865 19.7435 25.0949C19.9316 25.6033 20.0082 26.1462 19.9681 26.6867C19.9681 28.8279 19.9681 30.5566 19.9681 31.0772C19.9681 31.5977 20.2529 32.0004 21.0682 31.8531C24.6653 30.6436 27.7158 28.1957 29.6756 24.9459C31.6354 21.6961 32.3771 17.8558 31.7683 14.1099C31.1595 10.3641 29.2399 6.95624 26.3518 4.49431C23.4637 2.03239 19.795 0.676446 16 0.668335V0.727272Z" fill="#3B4BD8"/>
</g>
<defs>
<clipPath id="clip0_69:301">
<rect width="32" height="32" fill="white"/>
</clipPath>
</defs>
</svg>
