<svg width="32" height="32" viewBox="0 0 32 32" fill="none" xmlns="http://www.w3.org/2000/svg">
<path d="M26.4979 6.3564C24.5671 5.47047 22.4966 4.81776 20.3318 4.44392C20.2924 4.43671 20.253 4.45474 20.2327 4.4908C19.9664 4.9644 19.6715 5.58226 19.4649 6.06789C17.1365 5.7193 14.8201 5.7193 12.5394 6.06789C12.3328 5.57146 12.0271 4.9644 11.7597 4.4908C11.7393 4.45594 11.7 4.43791 11.6605 4.44392C9.49692 4.81656 7.42643 5.46928 5.49444 6.3564C5.47772 6.36361 5.46338 6.37564 5.45387 6.39126C1.52659 12.2585 0.450746 17.9816 0.97852 23.6337C0.980908 23.6613 0.99643 23.6878 1.01792 23.7046C3.60903 25.6074 6.11895 26.7626 8.58227 27.5283C8.6217 27.5404 8.66347 27.5259 8.68855 27.4935C9.27125 26.6977 9.79068 25.8587 10.236 24.9763C10.2623 24.9247 10.2372 24.8634 10.1835 24.8429C9.35962 24.5304 8.5751 24.1493 7.82046 23.7166C7.76077 23.6818 7.75599 23.5964 7.8109 23.5555C7.96971 23.4365 8.12855 23.3127 8.28019 23.1877C8.30763 23.1648 8.34586 23.16 8.37811 23.1744C13.3358 25.438 18.7031 25.438 23.6023 23.1744C23.6346 23.1588 23.6728 23.1637 23.7014 23.1865C23.8531 23.3115 24.0119 23.4365 24.1719 23.5555C24.2268 23.5964 24.2232 23.6818 24.1635 23.7166C23.4089 24.1577 22.6244 24.5304 21.7993 24.8417C21.7456 24.8622 21.7217 24.9247 21.748 24.9763C22.2029 25.8575 22.7223 26.6965 23.2943 27.4923C23.3181 27.5259 23.3611 27.5404 23.4005 27.5283C25.8758 26.7626 28.3857 25.6074 30.9768 23.7046C30.9995 23.6878 31.0138 23.6625 31.0162 23.6349C31.6479 17.1004 29.9583 11.4243 26.5373 6.39246C26.5289 6.37564 26.5146 6.36361 26.4979 6.3564ZM10.9764 20.1921C9.48378 20.1921 8.25391 18.8218 8.25391 17.1389C8.25391 15.456 9.45992 14.0857 10.9764 14.0857C12.5047 14.0857 13.7227 15.468 13.6988 17.1389C13.6988 18.8218 12.4928 20.1921 10.9764 20.1921ZM21.0423 20.1921C19.5497 20.1921 18.3198 18.8218 18.3198 17.1389C18.3198 15.456 19.5258 14.0857 21.0423 14.0857C22.5707 14.0857 23.7886 15.468 23.7647 17.1389C23.7647 18.8218 22.5707 20.1921 21.0423 20.1921Z" fill="#3B4BD8"/>
</svg>
