<svg width="32" height="32" viewBox="0 0 32 32" fill="none" xmlns="http://www.w3.org/2000/svg">
  <path fill-rule="evenodd" clip-rule="evenodd"
    d="M24 31H8C5.79086 31 4 29.2091 4 27V5C4 2.79086 5.79086 1 8 1H20.5858C20.851 1 21.1054 1.10536 21.2929 1.29289L27.7071 7.70711C27.8946 7.89464 28 8.149 28 8.41421V27C28 29.2091 26.2091 31 24 31ZM26 9L21 9C20.4477 9 20 8.55228 20 8V3L26 9ZM9 15C9 14.4477 9.44772 14 10 14H22C22.5523 14 23 14.4477 23 15C23 15.5523 22.5523 16 22 16H10C9.44772 16 9 15.5523 9 15ZM10 20C9.44772 20 9 20.4477 9 21C9 21.5523 9.44772 22 10 22H22C22.5523 22 23 21.5523 23 21C23 20.4477 22.5523 20 22 20H10Z" />
</svg>
