<svg width="32" height="32" viewBox="0 0 32 32" fill="none" xmlns="http://www.w3.org/2000/svg">
  <path
    d="M18.0502 16.0871C18.0502 21.1057 14.0095 25.174 9.02524 25.174C4.04103 25.174 0 21.1057 0 16.0871C0 11.0686 4.04072 7 9.02524 7C14.0098 7 18.0502 11.0686 18.0502 16.0871Z" />
  <path
    d="M27.9502 16.0868C27.9502 20.8107 25.9298 24.6416 23.4376 24.6416C20.9453 24.6416 18.9249 20.8107 18.9249 16.0868C18.9249 11.363 20.945 7.53201 23.4372 7.53201C25.9295 7.53201 27.9499 11.3617 27.9499 16.0868" />
  <path
    d="M32 16.0867C32 20.3182 31.2895 23.7506 30.4129 23.7506C29.5363 23.7506 28.8261 20.3191 28.8261 16.0867C28.8261 11.8544 29.5366 8.42291 30.4129 8.42291C31.2892 8.42291 32 11.8541 32 16.0867Z" />
</svg>
