<svg width="32" height="32" viewBox="0 0 32 32" fill="none" xmlns="http://www.w3.org/2000/svg">
  <path fill-rule="evenodd" clip-rule="evenodd"
    d="M24.512 29.7129C24.9413 30.0093 25.4946 30.0834 25.9879 29.9014C26.4813 29.7181 26.8439 29.3073 26.9533 28.8094C28.1119 23.5002 30.9225 10.0621 31.9771 5.23259C32.0571 4.86859 31.9238 4.49029 31.6305 4.24719C31.3372 4.00409 30.9305 3.93389 30.5678 4.06519C24.9773 6.0828 7.76035 12.3813 0.723181 14.9202C0.276524 15.0814 -0.0141359 15.5 0.00053046 15.9589C0.0165301 16.4191 0.333856 16.8182 0.791179 16.9521C3.94711 17.8725 8.08968 19.153 8.08968 19.153C8.08968 19.153 10.0256 24.8535 11.0349 27.7525C11.1616 28.1165 11.4536 28.4025 11.8389 28.5013C12.2229 28.5988 12.6336 28.4961 12.9202 28.2322C14.5415 26.7398 17.0481 24.4323 17.0481 24.4323C17.0481 24.4323 21.8107 27.837 24.512 29.7129ZM9.83231 18.4328L12.0709 25.6322L12.5682 21.0731C12.5682 21.0731 21.2174 13.4668 26.1479 9.1313C26.2919 9.0039 26.3119 8.7907 26.1919 8.6412C26.0733 8.4917 25.8546 8.4566 25.6906 8.558C19.9761 12.1161 9.83231 18.4328 9.83231 18.4328Z" />
</svg>
