<svg width="944" height="270" viewBox="0 0 944 270" fill="none" xmlns="http://www.w3.org/2000/svg">
<path d="M270 135C270 209.558 209.558 270 135 270C60.4416 270 0 209.558 0 135C0 60.4416 60.4416 0 135 0C209.558 0 270 60.4416 270 135Z" fill="white"/>
<path d="M148.982 70.8751L155.25 65.3304L163.446 66.0536L168.509 61.7144L194.544 54.9644L221.303 60.2679L226.848 65.3304H235.044L241.312 69.4286L236.973 78.5894L238.902 93.0536C229.821 89.9197 209.973 82.4465 194.544 82.4465C180.818 82.4465 160.071 88.1519 151.393 91.6072L152.598 79.7947L148.982 70.8751Z" fill="#E9F0F3"/>
<path d="M197.864 88.8518C197.176 89.1998 196.455 89.4874 195.783 89.7018C195.968 91.1403 196.928 92.6301 198.462 93.7083C200.178 94.9146 202.138 95.2706 203.621 94.7435C204.876 94.2976 206.254 94.9532 206.7 96.2077C207.146 97.4623 206.49 98.8407 205.236 99.2865C201.898 100.473 198.313 99.4962 195.69 97.6531C194.836 97.0529 194.033 96.3253 193.339 95.494C192.645 96.3253 191.843 97.0529 190.989 97.6531C188.366 99.4962 184.781 100.473 181.443 99.2865C180.188 98.8407 179.533 97.4623 179.978 96.2077C180.424 94.9532 181.803 94.2976 183.057 94.7435C184.54 95.2706 186.5 94.9146 188.217 93.7083C189.751 92.6301 190.71 91.1403 190.896 89.7018C190.224 89.4874 189.502 89.1998 188.815 88.8518C188.063 88.4712 187.245 87.9644 186.579 87.3202C185.952 86.7147 185.143 85.675 185.143 84.2544C185.143 82.4299 186.263 80.5593 187.531 79.272C188.872 77.9102 190.901 76.6606 193.339 76.6606C195.778 76.6606 197.806 77.9102 199.148 79.272C200.416 80.5593 201.536 82.4299 201.536 84.2544C201.536 85.675 200.726 86.7147 200.1 87.3202C199.433 87.9644 198.615 88.4712 197.864 88.8518Z" fill="#1D2654"/>
<path fill-rule="evenodd" clip-rule="evenodd" d="M209.216 75.9843C209.832 75.1035 210.915 74.25 212.384 74.25C213.852 74.25 214.935 75.1035 215.552 75.9843C216.174 76.8728 216.482 77.9718 216.482 79.0714C216.482 80.1711 216.174 81.2701 215.552 82.1585C214.935 83.0394 213.852 83.8929 212.384 83.8929C210.915 83.8929 209.832 83.0394 209.216 82.1585C208.594 81.2701 208.286 80.1711 208.286 79.0714C208.286 77.9718 208.594 76.8728 209.216 75.9843Z" fill="#1D2654"/>
<path fill-rule="evenodd" clip-rule="evenodd" d="M171.126 75.9843C171.743 75.1035 172.826 74.25 174.295 74.25C175.763 74.25 176.846 75.1035 177.463 75.9843C178.085 76.8728 178.393 77.9718 178.393 79.0714C178.393 80.1711 178.085 81.2701 177.463 82.1585C176.846 83.0394 175.763 83.8929 174.295 83.8929C172.826 83.8929 171.743 83.0394 171.126 82.1585C170.504 81.2701 170.196 80.1711 170.196 79.0714C170.196 77.9718 170.504 76.8728 171.126 75.9843Z" fill="#1D2654"/>
<path d="M133.071 99.3215C111.043 99.3215 86.8367 109.447 85.3843 121.018C84.4684 128.315 97.7021 147.882 111.368 161.342C106.498 165.841 104.38 171.37 104.143 175.018H162C161.827 172.358 160.654 168.699 158.144 165.167C148.293 157.304 150.738 146.953 166.458 148.24C175.044 137.359 181.403 126.152 180.759 121.018C179.306 109.447 155.1 99.3215 133.071 99.3215Z" fill="#FF6854"/>
<path fill-rule="evenodd" clip-rule="evenodd" d="M95.3428 148.144L94.7889 148.054C94.457 148 94.1158 147.945 93.7651 147.888C90.0625 147.29 85.6071 146.614 80.7304 146.394C72.3024 146.014 62.5048 146.986 52.7468 152.062C52.8451 149.072 53.6529 146.572 54.5991 144.211C54.8152 143.672 55.0637 143.085 55.3211 142.477C55.8532 141.22 56.424 139.871 56.8285 138.664C57.4789 136.722 57.9512 134.51 57.5768 132.076C56.9513 128.01 53.8848 125.715 50.756 125.218C49.8211 125.07 48.8196 125.075 47.8299 125.253C47.7582 125.127 47.6827 125.002 47.6036 124.88C46.4459 123.085 44.6836 121.978 42.8866 121.474C41.4718 121.078 39.8465 121.028 38.2887 121.408C37.2226 119.697 35.5776 118.573 33.7556 118.026C32.1064 117.532 30.3566 117.53 28.6667 118.171C27.01 118.799 25.6468 119.953 24.5567 121.383C22.4339 124.169 21.0373 128.4 20.2824 133.81C20.2623 133.954 20.2516 134.097 20.2498 134.239C20.1934 134.483 20.1636 134.738 20.1636 135C20.1636 195.654 67.4213 245.271 127.125 249.038C129.541 249.191 131.977 249.268 134.431 249.268C192.491 249.268 240.433 205.97 247.736 149.9C247.78 149.568 247.821 149.236 247.862 148.903C248.057 147.298 247.085 145.78 245.546 145.284C245.125 145.148 244.694 145.1 244.274 145.13C244.257 145.13 244.24 145.131 244.223 145.133C240.859 145.356 237.244 146.249 234.151 147.243C237.96 136.553 239.268 125.051 238.174 112.799C238.446 112.268 238.803 111.539 239.2 110.637C240.053 108.7 241.104 105.942 241.913 102.622C243.408 96.4942 244.123 88.2573 241.029 79.7464C244.236 75.6474 244.257 69.7287 240.778 65.5823C237.446 61.6119 231.957 60.52 227.464 62.5824C220.927 57.0982 210.708 52.0715 195.422 52.0715C179.93 52.0715 170.417 56.8301 163.493 62.6588C158.97 60.4939 153.388 61.5638 150.016 65.5823C146.545 69.7187 146.558 75.6188 149.742 79.7165C148.608 82.6619 147.835 86.2429 147.687 89.8918C147.589 92.3264 147.765 94.8993 148.361 97.3966C144.94 96.7593 141.441 96.3173 137.953 96.1003C137.769 95.4079 137.565 94.501 137.357 93.382C136.965 91.2741 136.614 88.7403 136.341 86.185C135.87 81.7839 133.342 77.8584 129.578 75.9365C125.633 73.9223 120.825 74.3586 116.622 77.8059C109.366 83.7556 108.571 92.5065 108.491 99.6621C105.555 100.556 102.751 101.591 100.146 102.744C95.4339 104.83 91.2399 107.36 88.0729 110.255C84.9344 113.125 82.5362 116.608 82.0354 120.598C81.6866 123.377 82.6746 126.684 84.0373 129.841C85.4648 133.149 87.5688 136.876 90.0843 140.717C91.6718 143.142 93.4426 145.641 95.3428 148.144ZM224.664 69.1282C219.462 64.1798 210.421 58.8215 195.422 58.8215C180.353 58.8215 172.166 63.7493 166.221 69.2533C165.556 69.8697 164.708 70.1666 163.868 70.1513C163.049 70.1911 162.213 69.9343 161.535 69.3657C159.629 67.766 156.787 68.0147 155.187 69.9211C153.587 71.8275 153.836 74.6697 155.742 76.2694C156.762 77.1248 157.148 78.4546 156.85 79.665C156.835 80.1098 156.732 80.5591 156.531 80.9876C155.442 83.3082 154.573 86.6599 154.432 90.1648C154.295 93.5504 154.846 96.763 156.213 99.2381C159.673 100.223 162.969 101.404 165.997 102.744C170.709 104.83 174.903 107.36 178.07 110.255C181.208 113.125 183.607 116.608 184.107 120.598C184.36 122.614 183.908 124.84 183.209 126.963C182.488 129.153 181.391 131.563 180.042 134.072C178.089 137.704 175.532 141.684 172.61 145.707C174.445 146.086 176.379 146.582 178.411 147.2C192.528 151.494 205.078 143.239 210.012 137.203C211.191 135.76 213.318 135.547 214.761 136.726C216.204 137.906 216.418 140.032 215.238 141.475C209.294 148.747 194.124 159.035 176.446 153.658C172.573 152.479 169.283 151.848 166.545 151.614C166.425 151.617 166.304 151.613 166.182 151.603C165.507 151.548 164.873 151.517 164.278 151.506C162.984 151.498 161.845 151.591 160.858 151.763C157.487 152.35 156.377 153.709 156.063 154.589C155.72 155.549 155.813 157.328 157.659 159.713C159.468 162.05 162.727 164.587 167.619 166.591C169.344 167.298 170.169 169.269 169.462 170.994C168.764 172.697 166.833 173.524 165.124 172.863C165.247 173.534 165.328 174.182 165.368 174.799C165.428 175.73 165.101 176.645 164.463 177.326C163.824 178.007 162.933 178.393 162 178.393H104.143C103.21 178.393 102.318 178.007 101.68 177.326C101.042 176.645 100.714 175.73 100.775 174.799C101.023 170.98 102.846 165.909 106.664 161.386C104.91 159.566 103.176 157.664 101.49 155.717C99.3101 155.633 96.6251 155.194 93.8412 154.739C93.4585 154.677 93.0739 154.614 92.6885 154.551C89.0233 153.959 84.8906 153.339 80.4258 153.137C71.5314 152.736 61.4713 154.004 51.7739 160.469C50.8426 161.09 49.664 161.209 48.6275 160.786C47.591 160.363 46.8315 159.454 46.5999 158.359C45.0805 151.177 46.6613 145.872 48.3337 141.7C48.67 140.861 48.9769 140.139 49.2573 139.48C49.7135 138.408 50.0996 137.5 50.428 136.52C50.9082 135.086 51.0501 134.044 50.9053 133.103C50.8327 132.63 50.6582 132.391 50.5062 132.25C50.3291 132.085 50.0562 131.942 49.6966 131.885C48.8486 131.75 48.3641 132.139 48.2518 132.335C47.4237 133.784 45.661 134.41 44.1044 133.809C42.5478 133.207 41.6648 131.558 42.0268 129.929C42.2167 129.074 42.0297 128.691 41.9319 128.539C41.8013 128.337 41.5296 128.104 41.0666 127.974C40.5953 127.842 40.095 127.87 39.7102 128.017C39.3668 128.148 39.139 128.356 38.9974 128.671C38.285 130.254 36.4878 131.038 34.8425 130.484C33.1973 129.93 32.2407 128.218 32.6311 126.527C32.8412 125.617 32.672 125.176 32.5817 125.015C32.4916 124.854 32.2953 124.635 31.8159 124.492C31.4564 124.384 31.2376 124.415 31.0592 124.483C30.8477 124.563 30.4429 124.795 29.9258 125.474C28.8342 126.907 27.6591 129.787 26.9676 134.743C26.9537 134.843 26.9357 134.94 26.9136 135.036C26.9231 163.9 38.3065 190.106 56.8253 209.414C55.68 204.806 55.2589 200.121 55.5221 195.728C56.0721 186.545 59.7441 177.521 67.4481 173.919C70.333 172.57 73.6415 172.873 76.0499 174.79C76.9418 175.499 77.6444 176.375 78.1415 177.368C79.4626 177.152 80.8098 177.25 82.029 177.627C83.6272 178.123 85.1523 179.131 86.2002 180.694C89.4477 179.866 93.0837 181.095 95.2429 184.29C96.3177 185.88 96.8538 187.54 96.9063 189.275C96.9565 190.932 96.5585 192.463 96.0953 193.796C95.7631 194.753 95.3253 195.795 94.9085 196.787L94.9082 196.788C94.7654 197.127 94.6251 197.461 94.4924 197.784C93.9396 199.127 93.4073 200.523 92.9841 202.081C91.2925 208.308 92.4001 212.818 92.9379 214.478C93.5122 216.251 92.5403 218.154 90.767 218.729C88.9938 219.303 87.0907 218.331 86.5163 216.558C85.6943 214.02 84.3456 208.132 86.4701 200.311C87.0008 198.358 87.6538 196.665 88.2501 195.216C88.4348 194.767 88.6063 194.358 88.7657 193.979C89.1491 193.066 89.4622 192.321 89.719 191.582C90.0654 190.584 90.1737 189.95 90.1594 189.48C90.1476 189.089 90.0485 188.659 89.6502 188.069C89.1903 187.389 88.6337 187.193 88.2209 187.193C87.8149 187.193 87.3055 187.379 86.894 188.015C86.0281 189.351 84.3455 189.901 82.8575 189.333C81.3695 188.765 80.4813 187.233 80.7267 185.66C80.8431 184.913 80.6775 184.584 80.604 184.469C80.5132 184.326 80.3399 184.171 80.0316 184.075C79.3024 183.849 78.5949 184.138 78.2879 184.615C77.3993 185.996 75.6453 186.537 74.133 185.897C72.6207 185.256 71.7892 183.619 72.1633 182.02C72.3275 181.318 72.2675 180.859 72.1863 180.596C72.106 180.336 71.9785 180.176 71.8466 180.071C71.5922 179.869 71.0481 179.687 70.3071 180.034C65.917 182.086 62.7496 187.957 62.26 196.132C61.7815 204.12 63.992 213.246 69.0473 220.302C69.0755 220.342 69.1028 220.382 69.1291 220.422C73.5271 223.789 78.1926 226.824 83.0883 229.49C93.4783 232.656 106.191 233.612 119.694 228.289C126.248 225.705 130.644 222.873 134.057 219.884C137.51 216.86 140.05 213.603 142.927 209.899L142.946 209.873C147.612 203.865 152.86 197.108 163.458 190.263C176.316 181.959 187.227 179.437 197.267 177.116L197.343 177.099C201.384 176.165 205.25 175.267 209.086 174.06C209.218 173.448 209.522 172.866 209.997 172.39C226.866 155.522 233.671 135.554 231.359 112.434C231.288 111.722 231.445 111.006 231.807 110.389L231.815 110.376C231.826 110.356 231.845 110.322 231.872 110.273C231.927 110.175 232.012 110.018 232.122 109.807C232.342 109.383 232.658 108.743 233.022 107.917C233.751 106.261 234.659 103.881 235.356 101.023C236.756 95.2802 237.257 87.8338 234.033 80.4173C233.631 79.4932 233.675 78.4877 234.071 77.6414C234.269 77.125 234.598 76.6502 235.051 76.2694C236.958 74.6697 237.206 71.8275 235.607 69.9211C234.007 68.0147 231.165 67.766 229.258 69.3657C227.892 70.5119 225.885 70.3911 224.664 69.1282ZM115.289 97.8984C120.398 96.793 125.731 96.1177 130.989 95.975C130.894 95.5254 130.805 95.07 130.72 94.616C130.288 92.2902 129.915 89.5762 129.629 86.9028C129.377 84.5417 128.048 82.7342 126.508 81.9482C125.149 81.2544 123.207 81.135 120.902 83.0253C116.583 86.5666 115.518 91.7199 115.289 97.8984ZM164.887 144.764C164.374 144.752 163.872 144.752 163.381 144.764C161.201 144.805 159.175 145.081 157.368 145.601C158.309 143.409 159.166 141.221 159.941 139.063C162.436 132.116 164.112 125.393 164.986 119.77C165.555 116.109 165.813 112.747 165.665 110.048C168.862 111.655 171.525 113.418 173.515 115.237C176.012 117.52 177.184 119.642 177.41 121.438C177.479 121.989 177.378 123.089 176.798 124.851C176.239 126.546 175.331 128.581 174.097 130.875C171.845 135.063 168.634 139.895 164.887 144.764ZM149.813 159.979C147.113 164.197 144.048 168.165 140.606 171.643H157.803C157.323 170.342 156.619 168.919 155.645 167.484C153.028 165.312 150.94 162.717 149.813 159.979ZM133.071 166.93C137.303 152.435 139.906 137.82 141.18 125.874C141.924 118.891 142.21 112.865 142.111 108.342C142.065 106.264 141.939 104.545 141.751 103.217C138.859 102.877 135.945 102.697 133.071 102.697C130.198 102.697 127.284 102.877 124.392 103.217C124.203 104.545 124.077 106.264 124.032 108.342C123.933 112.865 124.218 118.891 124.963 125.874C126.237 137.82 128.839 152.435 133.071 166.93ZM146.692 103.953C146.818 105.227 146.897 106.664 146.931 108.236C147.036 113.022 146.734 119.262 145.974 126.386C144.698 138.349 142.12 152.93 137.934 167.474C145.729 159.277 151.554 148.153 155.403 137.434C157.802 130.754 159.398 124.329 160.222 119.029C161.066 113.599 161.039 109.718 160.504 107.911C160.489 107.861 160.476 107.811 160.465 107.76C156.25 106.138 151.556 104.832 146.692 103.953ZM106.202 139.063C110.284 150.432 116.656 162.667 125.536 171.643H108.34C109.242 169.198 110.925 166.346 113.658 163.821C114.336 163.195 114.727 162.319 114.742 161.396C114.757 160.474 114.393 159.585 113.736 158.938C107.074 152.375 100.501 144.305 95.7313 137.02C93.3447 133.375 91.4579 130.001 90.2347 127.167C88.9466 124.182 88.6237 122.308 88.7329 121.438C88.9584 119.642 90.1306 117.52 92.6277 115.237C94.6173 113.418 97.2812 111.655 100.478 110.048C100.33 112.747 100.587 116.109 101.157 119.77C102.031 125.393 103.707 132.116 106.202 139.063ZM105.639 107.911C105.653 107.861 105.667 107.811 105.678 107.76C109.892 106.138 114.587 104.832 119.45 103.953C119.325 105.227 119.246 106.664 119.212 108.236C119.107 113.022 119.409 119.262 120.169 126.386C121.444 138.349 124.023 152.93 128.209 167.474C120.414 159.277 114.589 148.153 110.739 137.434C108.341 130.754 106.745 124.329 105.921 119.029C105.076 113.599 105.103 109.718 105.639 107.911ZM237.633 153.235C233.762 158.847 228.865 164.158 222.935 167.829C225.843 163.992 228.337 160.017 230.423 155.908C230.435 155.903 230.447 155.897 230.459 155.891C231.919 155.202 234.621 154.113 237.633 153.235Z" fill="#1D2654"/>
<path fill-rule="evenodd" clip-rule="evenodd" d="M224.497 84.0906C224.606 83.434 225.227 82.9904 225.884 83.0998C227.433 83.358 230.339 84.3927 232.166 85.6105C232.72 85.9798 232.869 86.7281 232.5 87.282C232.131 87.8359 231.383 87.9856 230.829 87.6163C229.308 86.6025 226.728 85.6845 225.488 85.4778C224.831 85.3683 224.387 84.7473 224.497 84.0906Z" fill="#1D2654"/>
<path fill-rule="evenodd" clip-rule="evenodd" d="M165.063 83.2993C164.902 82.6535 164.247 82.2608 163.602 82.4223C161.523 82.9419 159.327 84.2574 157.646 85.3783C157.092 85.7475 156.943 86.4959 157.312 87.0498C157.681 87.6037 158.43 87.7534 158.983 87.3841C160.65 86.2733 162.546 85.1712 164.186 84.761C164.832 84.5995 165.225 83.9451 165.063 83.2993Z" fill="#1D2654"/>
<path fill-rule="evenodd" clip-rule="evenodd" d="M224.527 88.6587C224.71 88.0186 225.377 87.648 226.017 87.8309C227.747 88.3252 230.142 89.3498 231.934 90.544C232.487 90.9133 232.637 91.6616 232.268 92.2155C231.899 92.7694 231.15 92.9191 230.596 92.5498C229.04 91.5124 226.879 90.5844 225.355 90.1488C224.715 89.9659 224.344 89.2988 224.527 88.6587Z" fill="#1D2654"/>
<path fill-rule="evenodd" clip-rule="evenodd" d="M165.27 87.9112C165.059 87.2796 164.377 86.9383 163.745 87.1489C162.21 87.6605 159.832 88.9316 158.111 90.079C157.557 90.4482 157.408 91.1966 157.777 91.7505C158.146 92.3044 158.894 92.4541 159.448 92.0848C161.075 91.0005 163.253 89.854 164.508 89.4359C165.139 89.2253 165.48 88.5427 165.27 87.9112Z" fill="#1D2654"/>
<path d="M401.898 180C426.213 180 445.93 160.887 445.93 135.968C445.93 111.048 426.213 91.9355 401.898 91.9355C377.584 91.9355 357.866 111.048 357.866 135.968C357.866 160.887 377.584 180 401.898 180ZM401.898 161.129C388.108 161.129 377.221 151.089 377.221 135.968C377.221 120.847 388.108 110.806 401.898 110.806C415.689 110.806 426.576 120.847 426.576 135.968C426.576 151.089 415.689 161.129 401.898 161.129Z" fill="#1D2654"/>
<path d="M491.667 135.242V117.823H479.207V100.887L461.062 106.331V117.823H451.384V135.242H461.062V156.653C461.062 173.589 467.957 180.726 491.667 178.306V161.855C483.683 162.339 479.207 161.855 479.207 156.653V135.242H491.667Z" fill="#1D2654"/>
<path d="M535.494 135.242V117.823H523.034V100.887L504.889 106.331V117.823H495.212V135.242H504.889V156.653C504.889 173.589 511.784 180.726 535.494 178.306V161.855C527.51 162.339 523.034 161.855 523.034 156.653V135.242H535.494Z" fill="#1D2654"/>
<path d="M560.796 155.323H603.74C604.223 153.024 604.465 150.605 604.465 148.065C604.465 129.798 591.401 116.129 573.74 116.129C554.627 116.129 541.562 130.04 541.562 148.065C541.562 166.089 554.385 180 575.07 180C586.562 180 595.514 175.766 601.441 167.54L586.925 159.194C584.506 161.855 580.272 163.79 575.312 163.79C568.659 163.79 563.094 161.613 560.796 155.323ZM560.433 141.774C562.127 135.605 566.723 132.218 573.619 132.218C579.062 132.218 584.506 134.758 586.441 141.774H560.433Z" fill="#1D2654"/>
<path d="M632.902 128.589V117.823H614.757V178.306H632.902V150.968C632.902 138.992 643.547 135.968 651.047 137.177V116.613C643.426 116.613 635.322 120.484 632.902 128.589Z" fill="#1D2654"/>
<path d="M746.475 178.306H764.62V90H746.475V178.306Z" fill="#1D2654"/>
<path d="M821.809 117.823V123.508C817.817 118.911 811.89 116.129 803.785 116.129C787.938 116.129 774.874 130.04 774.874 148.065C774.874 166.089 787.938 180 803.785 180C811.89 180 817.817 177.218 821.809 172.621V178.306H839.955V117.823H821.809ZM807.414 162.823C799.067 162.823 793.019 157.137 793.019 148.065C793.019 138.992 799.067 133.306 807.414 133.306C815.761 133.306 821.809 138.992 821.809 148.065C821.809 157.137 815.761 162.823 807.414 162.823Z" fill="#1D2654"/>
<path d="M921.009 116.129C912.42 116.129 906.855 119.274 903.468 124.113C900.081 119.032 894.759 116.129 887.622 116.129C879.517 116.129 874.194 119.274 871.412 123.387V117.823H853.267V178.306H871.412V144.194C871.412 137.056 874.799 132.823 880.847 132.823C886.654 132.823 889.557 136.694 889.557 142.742V178.306H907.702V144.194C907.702 137.056 911.089 132.823 917.138 132.823C922.944 132.823 925.847 136.694 925.847 142.742V178.306H943.992V141.169C943.992 126.048 934.92 116.129 921.009 116.129Z" fill="#1D2654"/>
<path d="M703.461 179.708C719.077 179.708 732.741 172.022 740.061 159.944L723.225 150.184C719.565 156.772 712.123 160.676 703.461 160.676C688.333 160.676 678.573 150.55 678.573 135.3C678.573 120.05 688.333 109.924 703.461 109.924C712.123 109.924 719.443 113.828 723.225 120.416L740.061 110.656C732.619 98.5778 718.955 90.8918 703.461 90.8918C677.719 90.8918 659.053 110.168 659.053 135.3C659.053 160.432 677.719 179.708 703.461 179.708Z" fill="#FF6854"/>
</svg>
