<svg width="44" height="44" viewBox="0 0 44 44" fill="none" xmlns="http://www.w3.org/2000/svg">
<g clip-path="url(#clip0_61:259)">
<path d="M44 8.35451C42.3812 9.07317 40.6413 9.55717 38.8153 9.77534C40.6798 8.65884 42.1117 6.88967 42.7845 4.78134C41.041 5.81534 39.1087 6.567 37.0517 6.97217C35.4072 5.21767 33.0587 4.12134 30.4627 4.12134C24.6345 4.12134 20.3518 9.559 21.6682 15.2038C14.168 14.828 7.51667 11.2347 3.0635 5.77317C0.6985 9.83034 1.837 15.1378 5.85567 17.8255C4.378 17.7778 2.98467 17.3727 1.76917 16.6962C1.67017 20.878 4.66767 24.7903 9.009 25.6612C7.7385 26.0058 6.347 26.0865 4.93167 25.8152C6.07933 29.4012 9.41233 32.01 13.365 32.0833C9.57 35.0588 4.78867 36.388 0 35.8233C3.99483 38.3845 8.74133 39.8787 13.838 39.8787C30.5983 39.8787 40.0675 25.7235 39.4955 13.0277C41.2592 11.7535 42.79 10.164 44 8.35451Z" fill="#3B4BD8"/>
</g>
<defs>
<clipPath id="clip0_61:259">
<rect width="44" height="44" fill="white"/>
</clipPath>
</defs>
</svg>
